<svg width="195" height="60" viewBox="0 0 195 60" fill="none" xmlns="http://www.w3.org/2000/svg">
<path d="M105.357 5.80047C103.669 9.0517 101.906 12.266 100.331 15.5911C97.3678 21.9088 93.8797 27.8571 88.7412 32.734C85.4406 35.8374 81.6149 37.9803 76.814 37.5739C72.7633 37.2414 69.8002 34.9138 68.6 31.0714C66.9872 25.7512 67.9624 20.3941 68.3375 15.0369C68.4125 13.8916 68.4125 12.6724 68.2249 11.5271C67.7748 9.16254 66.1245 8.27584 64.0992 9.64284C62.3363 10.862 60.611 12.4507 59.4858 14.2611C55.9227 20.0985 52.6221 26.0837 49.2089 31.9951C48.2713 33.5837 47.5211 35.431 46.2459 36.6502C45.2332 37.6108 43.3204 38.5345 42.1576 38.202C40.9949 37.9064 39.5697 36.0591 39.4947 34.8029C39.2696 30.4433 39.6072 26.0837 39.7197 21.7241C39.7947 18.6207 40.0573 15.4803 39.9447 12.3768C39.9072 11.3054 39.2321 9.60589 38.4445 9.31032C37.5818 8.97781 35.7815 9.64284 35.1438 10.4556C32.5559 13.8916 30.0804 17.4384 27.83 21.096C25.7671 24.6798 23.9668 28.4483 21.9414 32.032C21.2663 33.2882 20.5162 34.5443 19.5785 35.6157C18.1532 37.2414 16.2779 38.1281 14.065 37.2783C11.8521 36.4286 11.5895 34.4335 11.6645 32.4384C11.8521 27.5616 12.0771 22.6847 12.2646 17.8079C12.3772 14.8522 12.4897 11.9335 12.5272 8.97781C12.5272 8.01722 12.3021 7.05663 11.5145 5.80047C10.6894 6.8719 9.75168 7.90638 9.11406 9.08865C7.83883 11.4532 6.71362 13.9285 5.55091 16.367C4.76326 18.0665 3.48803 18.9901 1.6877 18.2512C-0.187649 17.4753 -0.412691 15.8497 0.524982 14.2241C2.73789 10.3079 4.87578 6.3916 7.35124 2.73397C8.85151 0.554166 11.2895 -0.6281 14.1025 0.369437C16.9905 1.44087 17.8907 4.02707 17.9282 6.68717C18.0032 11.3054 17.7782 15.9236 17.6281 20.5419C17.5531 23.3128 17.3281 26.0468 17.5531 29.0024C17.9657 28.2635 18.4158 27.4877 18.8283 26.7487C21.9789 21.3547 24.9045 15.8128 28.3926 10.6404C29.9679 8.27584 32.2933 6.05909 34.8063 4.72904C39.4571 2.21673 43.8079 4.35958 45.0082 9.42116C45.5708 11.8226 45.4582 14.4088 45.4582 16.9212C45.4207 20.2832 45.1582 23.6453 45.0082 27.0074C45.0082 27.1552 45.1207 27.3029 45.3457 27.7093C47.3711 24.0517 49.1339 20.5049 51.2343 17.1059C53.2597 13.8177 55.4726 10.6034 57.873 7.57387C58.8857 6.31771 60.461 5.35712 61.9613 4.65515C68.0374 1.88422 73.4384 4.95072 73.776 11.5271C74.001 15.9606 73.4759 20.431 73.3259 24.8645C73.2884 25.9359 73.3259 27.0813 73.5134 28.1157C74.1885 31.8842 76.889 33.5468 80.4522 31.9212C82.7026 30.8867 85.0655 29.3719 86.4908 27.4507C89.5289 23.4236 92.0793 19.0271 94.6298 14.6675C96.2051 11.9704 97.4053 9.08865 98.8681 6.31771C99.4307 5.28323 100.143 4.32264 100.931 3.43594C102.806 1.29308 104.869 -0.812829 108.132 0.184708C111.47 1.21919 112.258 4.17486 112.258 7.09358C112.221 13.2266 111.883 19.3596 111.658 25.4926C111.62 26.5271 111.508 27.5616 111.883 28.7438C114.283 24.532 116.609 20.2832 119.159 16.1453C120.997 13.1157 123.023 10.197 125.198 7.42609C126.136 6.20688 127.636 5.28323 129.061 4.58126C133.787 2.36451 137.838 4.13791 139.188 9.1256C139.751 11.1946 139.788 13.4483 139.751 15.5911C139.676 19.4704 139.413 23.3867 139.713 27.4138C141.701 23.83 143.614 20.2463 145.714 16.7364C147.364 14.0024 149.09 11.2685 151.04 8.71919C152.09 7.3522 153.516 6.13298 155.016 5.20934C158.354 3.25121 161.58 3.06648 164.018 4.39653C166.981 5.9852 167.693 9.56894 168.143 11.8596C168.743 14.963 168.068 16.2561 167.956 21.6502C167.918 24.4212 168.068 26.6749 168.181 28.1527C168.218 28.5221 168.593 30.9975 170.506 31.8842C170.806 32.032 171.894 32.4753 174.519 31.5886C177.783 30.5172 179.845 28.5221 180.221 28.1896C184.271 24.2734 184.946 20.0985 188.96 15.1478C189.635 14.335 190.872 12.8941 192.26 13.0788C193.123 13.1896 193.723 13.8916 193.798 14.0024C194.548 14.963 194.323 16.1453 194.248 16.5148C194.136 16.9951 193.948 17.4015 193.798 17.6231C192.26 20.6896 190.76 23.0542 189.672 24.6798C187.947 27.1921 183.634 33.399 178.308 35.9483C177.333 36.4286 175.345 37.3891 172.607 37.4261C171.556 37.463 170.844 37.3153 170.431 37.2783C166.455 37.1305 163.342 34.0271 162.78 29.6675C162.292 26.1207 162.48 22.463 162.48 18.8793C162.48 16.5148 162.855 14.1502 162.705 11.8226C162.555 9.0517 160.529 8.05417 158.279 9.67978C156.666 10.8251 155.128 12.3399 154.078 14.0024C150.853 19.1749 147.927 24.4581 144.852 29.7414C143.651 31.7734 142.564 33.8793 141.326 35.8744C140.238 37.6108 138.813 38.9409 136.487 38.3128C134.162 37.6478 133.637 35.6896 133.674 33.7315C133.749 28.3005 133.749 25.6034 134.237 19.6182C134.35 18.2882 134.462 16.2561 134.5 13.7808C134.612 12.8202 134.5 12.0074 134.425 11.4901C134.312 10.8251 134.162 10.234 133.674 9.71673C133.412 9.42116 133.112 9.23643 132.924 9.1256C132.812 9.08865 132.624 9.0517 132.362 9.0517C130.936 9.01476 129.811 10.234 129.249 10.899C125.048 15.7389 122.31 21.0591 122.31 21.0591C120.097 24.7537 118.222 28.633 116.121 32.4015C115.409 33.6576 114.621 34.8768 113.646 35.9113C112.221 37.4261 110.383 38.0911 108.282 37.2783C106.294 36.5024 105.844 34.729 105.919 32.9187C106.032 28.4483 106.294 24.0148 106.482 19.5443C106.632 15.9975 106.782 12.4877 106.857 8.94087C106.857 7.98027 106.594 7.01968 106.444 6.05909C106.069 5.94825 105.732 5.87436 105.357 5.80047Z" fill="black"/>
<path d="M45.2331 49.4335V57.1182H43.6579V52.0936L41.5575 57.0813H40.3573L38.2569 52.0936V57.0813H36.7566V49.3965H38.5194L40.9949 55.1231L43.4703 49.3965H45.2331V49.4335Z" fill="black"/>
<path d="M48.0461 56.8226C47.5585 56.564 47.1834 56.1945 46.9209 55.7142C46.6583 55.2339 46.5083 54.6797 46.5083 54.0517C46.5083 53.4236 46.6583 52.8694 46.9209 52.3891C47.1834 51.9088 47.596 51.5394 48.0836 51.2807C48.5712 51.0221 49.0963 50.8743 49.6964 50.8743C50.2965 50.8743 50.8216 51.0221 51.3092 51.2807C51.7968 51.5394 52.1718 51.9088 52.4719 52.3891C52.7344 52.8694 52.8845 53.4236 52.8845 54.0517C52.8845 54.6797 52.7344 55.2339 52.4719 55.7142C52.1718 56.1945 51.7968 56.564 51.3092 56.8226C50.8216 57.0812 50.259 57.229 49.6589 57.229C49.0588 57.1921 48.5337 57.0812 48.0461 56.8226ZM50.4465 55.6403C50.7091 55.4926 50.8966 55.3078 51.0466 55.0123C51.1967 54.7536 51.2717 54.4211 51.2717 54.0147C51.2717 53.4236 51.1216 52.9802 50.8216 52.6847C50.5215 52.3891 50.1465 52.2044 49.6964 52.2044C49.2463 52.2044 48.8712 52.3522 48.5712 52.6847C48.2711 52.9802 48.1211 53.4605 48.1211 54.0147C48.1211 54.6059 48.2711 55.0492 48.5712 55.3448C48.8712 55.6403 49.2463 55.8251 49.6964 55.8251C49.9214 55.862 50.184 55.7881 50.4465 55.6403Z" fill="black"/>
<path d="M56.7104 55.6773L58.2857 50.9852H59.936L57.648 57.0812H55.7352L53.4473 50.9852H55.1351L56.7104 55.6773Z" fill="black"/>
<path d="M66.6497 54.532H62.1113C62.1488 54.9753 62.2989 55.3078 62.5989 55.5664C62.8615 55.8251 63.199 55.9359 63.6116 55.9359C64.1742 55.9359 64.6243 55.6773 64.8493 55.197H66.5371C66.3496 55.7881 66.012 56.2684 65.5245 56.6379C64.9994 57.0073 64.3992 57.1921 63.6491 57.1921C63.049 57.1921 62.5239 57.0443 62.0363 56.7857C61.5487 56.527 61.2112 56.1576 60.9111 55.6773C60.6486 55.197 60.4985 54.6428 60.4985 54.0147C60.4985 53.3866 60.6111 52.8325 60.8736 52.3522C61.1362 51.8719 61.5112 51.5024 61.9613 51.2438C62.4489 50.9852 62.974 50.8743 63.5741 50.8743C64.1742 50.8743 64.6993 50.9852 65.1494 51.2438C65.5995 51.5024 65.9745 51.8349 66.2371 52.3152C66.4996 52.7586 66.6122 53.3128 66.6122 53.9039C66.6872 54.1256 66.6872 54.3472 66.6497 54.532ZM65.0744 53.4975C65.0744 53.0911 64.9243 52.7955 64.6243 52.5369C64.3242 52.3152 63.9867 52.1674 63.5741 52.1674C63.199 52.1674 62.8615 52.2783 62.5989 52.4999C62.3364 52.7216 62.1863 53.0541 62.1113 53.4605H65.0744V53.4975Z" fill="black"/>
<path d="M79.2144 49.4335V57.1182H77.6391V52.0936L75.5387 57.0813H74.3385L72.2381 52.0936V57.0813H70.6628V49.3965H72.4257L74.9011 55.1231L77.3766 49.3965H79.2144V49.4335Z" fill="black"/>
<path d="M82.0275 56.8226C81.5399 56.564 81.1649 56.1945 80.9023 55.7142C80.6398 55.2339 80.4897 54.6797 80.4897 54.0517C80.4897 53.4236 80.6398 52.8694 80.9023 52.3891C81.1649 51.9088 81.5774 51.5394 82.065 51.2807C82.5526 51.0221 83.0777 50.8743 83.6778 50.8743C84.2779 50.8743 84.803 51.0221 85.2906 51.2807C85.7782 51.5394 86.1533 51.9088 86.4533 52.3891C86.7159 52.8694 86.8659 53.4236 86.8659 54.0517C86.8659 54.6797 86.7159 55.2339 86.4533 55.7142C86.1533 56.1945 85.7782 56.564 85.2906 56.8226C84.803 57.0812 84.2404 57.229 83.6403 57.229C83.0402 57.1921 82.4776 57.0812 82.0275 56.8226ZM84.428 55.6403C84.6905 55.4926 84.878 55.3078 85.0281 55.0123C85.1781 54.7536 85.2531 54.4211 85.2531 54.0147C85.2531 53.4236 85.1031 52.9802 84.803 52.6847C84.503 52.3891 84.1279 52.2044 83.6778 52.2044C83.2277 52.2044 82.8527 52.3522 82.5526 52.6847C82.2526 52.9802 82.1025 53.4605 82.1025 54.0147C82.1025 54.6059 82.2526 55.0492 82.5526 55.3448C82.8527 55.6403 83.2277 55.8251 83.6778 55.8251C83.9029 55.862 84.1654 55.7881 84.428 55.6403Z" fill="black"/>
<path d="M93.3169 51.6133C93.767 52.0566 93.992 52.7216 93.992 53.5344V57.1182H92.4167V53.7561C92.4167 53.2758 92.3042 52.9064 92.0416 52.6477C91.7791 52.3891 91.479 52.2413 91.029 52.2413C90.5789 52.2413 90.2413 52.3891 90.0163 52.6477C89.7537 52.9064 89.6412 53.2758 89.6412 53.7561V57.1182H88.0659V51.0221H89.6412V51.798C89.8662 51.5394 90.1288 51.3177 90.4289 51.1699C90.7664 51.0221 91.104 50.9482 91.479 50.9482C92.2667 50.9113 92.8668 51.133 93.3169 51.6133Z" fill="black"/>
<path d="M101.306 54.532H96.7676C96.8051 54.9753 96.9551 55.3078 97.2552 55.5664C97.5177 55.8251 97.8553 55.9359 98.2679 55.9359C98.8305 55.9359 99.2805 55.6773 99.5056 55.197H101.193C101.006 55.7881 100.668 56.2684 100.181 56.6379C99.6556 57.0073 99.0555 57.1921 98.3054 57.1921C97.7053 57.1921 97.1802 57.0443 96.6926 56.7857C96.205 56.527 95.8674 56.1576 95.5674 55.6773C95.3048 55.197 95.1548 54.6428 95.1548 54.0147C95.1548 53.3866 95.2673 52.8325 95.5299 52.3522C95.7924 51.8719 96.1675 51.5024 96.6176 51.2438C97.0676 50.9852 97.6302 50.8743 98.2303 50.8743C98.8305 50.8743 99.3556 50.9852 99.8056 51.2438C100.256 51.5024 100.631 51.8349 100.893 52.3152C101.156 52.7586 101.268 53.3128 101.268 53.9039C101.381 54.1256 101.343 54.3472 101.306 54.532ZM99.7306 53.4975C99.7306 53.0911 99.5806 52.7955 99.2805 52.5369C98.9805 52.3152 98.6429 52.1674 98.2303 52.1674C97.8553 52.1674 97.5177 52.2783 97.2552 52.4999C96.9926 52.7216 96.8426 53.0541 96.7676 53.4605H99.7306V53.4975Z" fill="black"/>
<path d="M108.545 51.0222L104.719 60H103.069L104.419 56.9704L101.944 51.0222H103.706L105.319 55.2709L106.932 51.0222H108.545Z" fill="black"/>
<path d="M112.408 51.2069C112.746 50.6158 113.233 50.1355 113.833 49.803C114.433 49.4704 115.108 49.2857 115.859 49.2857C116.721 49.2857 117.509 49.5074 118.147 49.9507C118.784 50.3941 119.272 50.9852 119.534 51.7611H117.734C117.546 51.3916 117.321 51.133 116.984 50.9483C116.646 50.7635 116.271 50.6896 115.859 50.6896C115.409 50.6896 114.996 50.8005 114.658 50.9852C114.321 51.2069 114.021 51.5025 113.833 51.8719C113.646 52.2414 113.533 52.6847 113.533 53.202C113.533 53.7192 113.646 54.1626 113.833 54.532C114.021 54.9015 114.321 55.197 114.658 55.4187C114.996 55.6404 115.409 55.7143 115.859 55.7143C116.271 55.7143 116.646 55.6034 116.984 55.4187C117.321 55.234 117.546 54.9384 117.734 54.6059H119.534C119.272 55.3818 118.822 56.0098 118.184 56.4532C117.546 56.8965 116.759 57.1182 115.896 57.1182C115.146 57.1182 114.471 56.9335 113.871 56.601C113.271 56.2685 112.783 55.7882 112.446 55.197C112.108 54.6059 111.92 53.9409 111.92 53.165C111.92 52.3892 112.07 51.835 112.408 51.2069Z" fill="black"/>
<path d="M120.922 52.3891C121.185 51.9089 121.522 51.5394 121.935 51.2808C122.347 51.0222 122.835 50.9113 123.36 50.9113C123.81 50.9113 124.223 50.9852 124.56 51.1699C124.898 51.3547 125.198 51.5763 125.385 51.8719V50.9852H126.961V57.0813H125.385V56.1946C125.198 56.4901 124.898 56.7118 124.56 56.8965C124.223 57.0813 123.81 57.1921 123.323 57.1921C122.797 57.1921 122.31 57.0443 121.897 56.7857C121.485 56.5271 121.147 56.1576 120.885 55.6773C120.622 55.197 120.51 54.6428 120.51 54.0148C120.547 53.4236 120.66 52.8694 120.922 52.3891ZM125.198 53.0911C125.048 52.8325 124.86 52.6108 124.598 52.463C124.335 52.3153 124.073 52.2414 123.773 52.2414C123.473 52.2414 123.21 52.3153 122.985 52.463C122.722 52.6108 122.535 52.7956 122.385 53.0911C122.235 53.3497 122.16 53.6823 122.16 54.0517C122.16 54.4212 122.235 54.7537 122.385 55.0123C122.535 55.2709 122.722 55.4926 122.985 55.6404C123.248 55.7882 123.51 55.8621 123.773 55.8621C124.073 55.8621 124.335 55.7882 124.598 55.6404C124.86 55.4926 125.048 55.3079 125.198 55.0123C125.348 54.7537 125.423 54.4212 125.423 54.0517C125.423 53.6823 125.348 53.3497 125.198 53.0911Z" fill="black"/>
<path d="M131.049 51.2069C131.386 51.0222 131.799 50.9113 132.249 50.9113C132.774 50.9113 133.262 51.0222 133.674 51.2808C134.087 51.5394 134.425 51.9089 134.687 52.3891C134.95 52.8694 135.062 53.4236 135.062 54.0517C135.062 54.6798 134.95 55.234 134.687 55.7143C134.425 56.1946 134.087 56.564 133.674 56.8226C133.262 57.0813 132.774 57.229 132.249 57.229C131.799 57.229 131.386 57.1552 131.049 56.9704C130.711 56.7857 130.411 56.564 130.224 56.2685V60.0369H128.648V51.0222H130.224V51.9089C130.411 51.6133 130.674 51.3916 131.049 51.2069ZM133.262 53.0911C133.112 52.8325 132.924 52.6108 132.662 52.463C132.399 52.3153 132.137 52.2414 131.837 52.2414C131.536 52.2414 131.274 52.3153 131.049 52.463C130.786 52.6108 130.599 52.7956 130.449 53.0911C130.299 53.3497 130.224 53.6823 130.224 54.0517C130.224 54.4212 130.299 54.7537 130.449 55.0123C130.599 55.2709 130.786 55.4926 131.049 55.6404C131.311 55.7882 131.574 55.8621 131.837 55.8621C132.137 55.8621 132.399 55.7882 132.662 55.6404C132.924 55.4926 133.112 55.2709 133.262 55.0123C133.412 54.7537 133.487 54.4212 133.487 54.0517C133.487 53.6823 133.412 53.3497 133.262 53.0911Z" fill="black"/>
<path d="M136.45 50.0246C136.263 49.8399 136.188 49.6551 136.188 49.3965C136.188 49.1379 136.263 48.9162 136.45 48.7684C136.638 48.5837 136.863 48.5098 137.125 48.5098C137.388 48.5098 137.613 48.5837 137.8 48.7684C137.988 48.9532 138.063 49.1379 138.063 49.3965C138.063 49.6551 137.988 49.8768 137.8 50.0246C137.613 50.2093 137.388 50.2832 137.125 50.2832C136.863 50.2832 136.6 50.2093 136.45 50.0246ZM137.875 51.0221V57.1182H136.3V51.0221H137.875Z" fill="black"/>
<path d="M141.363 52.2783V55.234C141.363 55.4557 141.401 55.6034 141.513 55.6773C141.626 55.7512 141.776 55.8251 142.038 55.8251H142.751V57.1182H141.776C140.463 57.1182 139.788 56.4901 139.788 55.234V52.2783H139.038V51.0222H139.788V49.5074H141.363V51.0222H142.751V52.2783H141.363Z" fill="black"/>
<path d="M143.951 52.3891C144.214 51.9089 144.551 51.5394 144.964 51.2808C145.377 51.0222 145.864 50.9113 146.389 50.9113C146.839 50.9113 147.252 50.9852 147.59 51.1699C147.927 51.3547 148.227 51.5763 148.415 51.8719V50.9852H149.99V57.0813H148.415V56.1946C148.227 56.4901 147.927 56.7118 147.59 56.8965C147.252 57.0813 146.839 57.1921 146.352 57.1921C145.827 57.1921 145.339 57.0443 144.927 56.7857C144.514 56.5271 144.176 56.1576 143.914 55.6773C143.651 55.197 143.539 54.6428 143.539 54.0148C143.576 53.4236 143.726 52.8694 143.951 52.3891ZM148.227 53.0911C148.077 52.8325 147.89 52.6108 147.627 52.463C147.365 52.3153 147.102 52.2414 146.802 52.2414C146.502 52.2414 146.239 52.3153 146.014 52.463C145.752 52.6108 145.564 52.7956 145.414 53.0911C145.264 53.3497 145.189 53.6823 145.189 54.0517C145.189 54.4212 145.264 54.7537 145.414 55.0123C145.564 55.2709 145.752 55.4926 146.014 55.6404C146.277 55.7882 146.539 55.8621 146.802 55.8621C147.102 55.8621 147.365 55.7882 147.627 55.6404C147.89 55.4926 148.077 55.3079 148.227 55.0123C148.377 54.7537 148.452 54.4212 148.452 54.0517C148.452 53.6823 148.377 53.3497 148.227 53.0911Z" fill="black"/>
<path d="M153.253 48.9532V57.0813H151.678V48.9532H153.253Z" fill="black"/>
</svg>
