<svg width="195" height="39" viewBox="0 0 195 39" fill="none" xmlns="http://www.w3.org/2000/svg">
<path d="M105.37 5.87078C103.683 9.12201 101.92 12.3363 100.345 15.6614C97.3815 21.9792 93.8933 27.9274 88.7549 32.8043C85.4543 35.9077 81.6286 38.0506 76.8277 37.6442C72.7769 37.3117 69.8139 34.9841 68.6137 31.1417C67.0009 25.8215 67.9761 20.4644 68.3511 15.1072C68.4261 13.9619 68.4261 12.7427 68.2386 11.5974C67.7885 9.23285 66.1382 8.34615 64.1128 9.71315C62.35 10.9324 60.6247 12.521 59.4995 14.3314C55.9363 20.1688 52.6357 26.154 49.2226 32.0654C48.2849 33.654 47.5348 35.5013 46.2596 36.7205C45.2469 37.6811 43.334 38.6048 42.1713 38.2723C41.0086 37.9767 39.5833 36.1294 39.5083 34.8732C39.2833 30.5136 39.6208 26.154 39.7334 21.7944C39.8084 18.691 40.0709 15.5506 39.9584 12.4471C39.9209 11.3757 39.2458 9.6762 38.4581 9.38064C37.5955 9.04812 35.7951 9.71315 35.1575 10.526C32.5695 13.9619 30.0941 17.5087 27.8437 21.1663C25.7808 24.7501 23.9805 28.5186 21.9551 32.1023C21.28 33.3585 20.5298 34.6146 19.5922 35.6861C18.1669 37.3117 16.2916 38.1984 14.0786 37.3486C11.8657 36.4989 11.6032 34.5038 11.6782 32.5087C11.8657 27.6319 12.0908 22.755 12.2783 17.8782C12.3908 14.9225 12.5034 12.0038 12.5409 9.04812C12.5409 8.08753 12.3158 7.12694 11.5282 5.87078C10.703 6.94221 9.76535 7.9767 9.12773 9.15896C7.8525 11.5235 6.72729 13.9989 5.56458 16.4373C4.77693 18.1368 3.5017 19.0604 1.70137 18.3215C-0.173977 17.5457 -0.399019 15.92 0.538654 14.2944C2.75156 10.3782 4.88945 6.46192 7.36491 2.80428C8.86519 0.624478 11.3031 -0.557788 14.1161 0.439749C17.0042 1.51118 17.9043 4.09738 17.9419 6.75748C18.0169 11.3757 17.7918 15.9939 17.6418 20.6122C17.5668 23.3831 17.3417 26.1171 17.5668 29.0728C17.9794 28.3338 18.4294 27.558 18.842 26.8191C21.9926 21.425 24.9181 15.8831 28.4063 10.7107C29.9816 8.34615 32.307 6.1294 34.82 4.79936C39.4708 2.28704 43.8216 4.4299 45.0218 9.49147C45.5844 11.893 45.4719 14.4792 45.4719 16.9915C45.4344 20.3535 45.1719 23.7156 45.0218 27.0777C45.0218 27.2255 45.1344 27.3732 45.3594 27.7797C47.3848 24.122 49.1476 20.5752 51.248 17.1762C53.2734 13.888 55.4863 10.6737 57.8867 7.64418C58.8994 6.38803 60.4747 5.42743 61.975 4.72546C68.0511 1.95453 73.4521 5.02103 73.7896 11.5974C74.0147 16.0309 73.4896 20.5013 73.3395 24.9348C73.302 26.0063 73.3395 27.1516 73.5271 28.1861C74.2022 31.9545 76.9027 33.6171 80.4659 31.9915C82.7163 30.957 85.0792 29.4422 86.5045 27.521C89.5425 23.4939 92.093 19.0974 94.6435 14.7378C96.2188 12.0407 97.419 9.15896 98.8817 6.38803C99.4443 5.35354 100.157 4.39295 100.945 3.50625C102.82 1.36339 104.883 -0.742517 108.146 0.25502C111.484 1.2895 112.272 4.24517 112.272 7.16389C112.234 13.2969 111.897 19.4299 111.672 25.5629C111.634 26.5974 111.522 27.6319 111.897 28.8141C114.297 24.6023 116.623 20.3535 119.173 16.2156C121.011 13.1861 123.036 10.2673 125.212 7.4964C126.149 6.27719 127.65 5.35354 129.075 4.65157C133.801 2.43482 137.851 4.20822 139.202 9.19591C139.764 11.2649 139.802 13.5186 139.764 15.6614C139.689 19.5407 139.427 23.457 139.727 27.4841C141.715 23.9003 143.627 20.3166 145.728 16.8067C147.378 14.0728 149.103 11.3388 151.054 8.7895C152.104 7.42251 153.529 6.2033 155.03 5.27965C158.368 3.32152 161.593 3.13679 164.031 4.46684C166.994 6.05551 167.707 9.63926 168.157 11.9299C168.757 15.0333 168.082 16.3264 167.969 21.7205C167.932 24.4915 168.082 26.7452 168.194 28.223C168.232 28.5925 168.607 31.0678 170.52 31.9545C170.82 32.1023 171.908 32.5457 174.533 31.659C177.796 30.5875 179.859 28.5925 180.234 28.2599C184.285 24.3437 184.96 20.1688 188.973 15.2181C189.648 14.4053 190.886 12.9644 192.274 13.1491C193.137 13.2599 193.737 13.9619 193.812 14.0728C194.562 15.0333 194.337 16.2156 194.262 16.5851C194.149 17.0654 193.962 17.4718 193.812 17.6934C192.274 20.7599 190.774 23.1245 189.686 24.7501C187.961 27.2624 183.647 33.4693 178.321 36.0186C177.346 36.4989 175.358 37.4595 172.62 37.4964C171.57 37.5333 170.857 37.3856 170.445 37.3486C166.469 37.2008 163.356 34.0974 162.793 29.7378C162.306 26.191 162.493 22.5333 162.493 18.9496C162.493 16.5851 162.868 14.2205 162.718 11.893C162.568 9.12201 160.543 8.12448 158.293 9.75009C156.68 10.8954 155.142 12.4102 154.092 14.0728C150.866 19.2452 147.941 24.5284 144.865 29.8117C143.665 31.8437 142.577 33.9496 141.34 35.9447C140.252 37.6811 138.827 39.0112 136.501 38.3831C134.176 37.7181 133.651 35.7599 133.688 33.8018C133.763 28.3708 133.763 25.6737 134.251 19.6885C134.363 18.3585 134.476 16.3264 134.513 13.8511C134.626 12.8905 134.513 12.0777 134.438 11.5604C134.326 10.8954 134.176 10.3043 133.688 9.78704C133.426 9.49147 133.126 9.30674 132.938 9.19591C132.825 9.15896 132.638 9.12201 132.375 9.12201C130.95 9.08507 129.825 10.3043 129.262 10.9693C125.062 15.8092 122.324 21.1294 122.324 21.1294C120.111 24.824 118.235 28.7033 116.135 32.4718C115.422 33.7279 114.635 34.9471 113.659 35.9816C112.234 37.4964 110.396 38.1614 108.296 37.3486C106.308 36.5728 105.858 34.7994 105.933 32.989C106.046 28.5186 106.308 24.0851 106.496 19.6146C106.646 16.0678 106.796 12.558 106.871 9.01118C106.871 8.05059 106.608 7.09 106.458 6.1294C106.083 6.01857 105.745 5.94468 105.37 5.87078Z" fill="#3C43CC"/>
</svg>
