<svg width="30" height="32" viewBox="0 0 30 32" fill="none" xmlns="http://www.w3.org/2000/svg">
<path d="M26.8883 6.44065L17.2531 1.26834C16.0699 0.631827 14.6595 0.631827 13.4762 1.26298L3.74064 6.45671C2.27212 7.34995 0.898685 8.40367 0.840576 11.4739V13.9503H4.62808V10.5646L15.3673 4.76647L26.0273 10.5646V13.9503H29.8148V11.4739C29.7514 8.38763 28.3674 7.33926 26.8883 6.44065Z" fill="#346BEF"/>
<path d="M26.022 21.6634L17.2584 26.6324V22.6208C20.3381 21.8881 22.3666 19.3473 22.3666 15.9509C22.3666 11.8322 19.5562 9.06689 15.3673 9.06689C11.1783 9.06689 8.36806 11.8322 8.36806 15.9509C8.36806 19.3526 10.3912 21.8881 13.4762 22.6208V26.6378L4.63336 21.6634V17.962H0.840576V20.4332C0.903966 23.498 2.27212 24.5571 3.74064 25.4504L13.4762 30.644C14.6595 31.2753 16.0752 31.2753 17.2531 30.6388L26.883 25.4663C28.3621 24.5732 29.7514 23.5195 29.8095 20.4332V17.962H26.022V21.6634ZM11.8862 15.9509C11.8862 13.6935 13.1222 12.4527 15.3673 12.4527C17.6123 12.4527 18.8485 13.6935 18.8485 15.9509C18.8485 18.1385 17.5489 19.449 15.3673 19.449C13.1856 19.449 11.8862 18.1438 11.8862 15.9509Z" fill="#346BEF"/>
</svg>
