<svg width="27" height="30" viewBox="0 0 27 30" fill="none" xmlns="http://www.w3.org/2000/svg">
<path d="M14.0093 29.6795C7.28597 29.6795 2.06294 26.4022 0.377958 21.1266L0 19.9463L1.10506 19.41C1.22191 19.3522 4.12086 17.8749 3.94053 14.97C3.75011 11.9034 1.29763 10.4641 1.19304 10.4049L0.115413 9.78732L0.580651 8.62171C2.7857 3.22171 7.80675 0 14.01 0C18.8854 0 23.1584 1.93244 25.7306 5.30122L26.3798 6.15293L21.2542 13.1473L20.1102 12.0271C20.0878 12.0059 17.6512 9.67317 14.823 9.66C12.0978 9.64683 11.0238 10.6866 10.9791 10.7312L8.96013 8.76732C9.14479 8.56756 10.8752 6.79463 14.8352 6.82463C17.3584 6.83634 19.5382 8.05756 20.8243 8.98171L22.8346 6.23854C20.75 4.06537 17.595 2.83683 14.0108 2.83683C9.3821 2.83683 5.58078 5.00927 3.63324 8.70293C4.81042 9.70317 6.53797 11.6839 6.73273 14.7915C6.94119 18.15 4.81981 20.2617 3.43994 21.27C5.07299 24.7332 9.01351 26.8405 14.0115 26.8405C17.473 26.8405 21.0161 25.4759 23.2039 23.3663L20.918 20.4651C19.7012 21.338 17.6216 22.4722 14.9023 22.6156C11.0411 22.8168 8.75816 21.0176 8.66295 20.9407L10.3991 18.7178C10.4525 18.7573 12.0033 19.9295 14.7566 19.7824C18.0155 19.6127 20.1058 17.4929 20.1253 17.4702L21.2311 16.3295L22.22 17.5741L26.84 23.4417L26.1317 24.3278C23.5328 27.5788 18.7765 29.6795 14.0093 29.6795Z" fill="url(#paint0_linear_8_589)"/>
<defs>
<linearGradient id="paint0_linear_8_589" x1="25.6765" y1="4.68366" x2="2.70897" y2="24.5051" gradientUnits="userSpaceOnUse">
<stop offset="0.0733" stop-color="#F46881"/>
<stop offset="0.083" stop-color="#F36682"/>
<stop offset="0.2596" stop-color="#E74596"/>
<stop offset="0.407" stop-color="#E031A2"/>
<stop offset="0.5065" stop-color="#DD2AA6"/>
<stop offset="0.8882" stop-color="#5210E2"/>
</linearGradient>
</defs>
</svg>
