<svg width="33" height="32" viewBox="0 0 33 32" fill="none" xmlns="http://www.w3.org/2000/svg">
<path d="M24.3458 0H7.68815C3.4421 0 0 3.43845 0 7.68V24.32C0 28.5615 3.4421 32 7.68815 32H24.3458C28.5919 32 32.034 28.5615 32.034 24.32V7.68C32.034 3.43845 28.5919 0 24.3458 0Z" fill="url(#paint0_linear_97_5)"/>
<path fill-rule="evenodd" clip-rule="evenodd" d="M16.0165 26.2398C21.6779 26.2398 26.2674 21.6552 26.2674 15.9998C26.2674 10.3444 21.6779 5.75977 16.0165 5.75977C10.3551 5.75977 5.76562 10.3444 5.76562 15.9998C5.76562 21.6552 10.3551 26.2398 16.0165 26.2398ZM14.2075 11.112C14.2074 10.8174 14.4462 10.5786 14.7408 10.5786H17.292C17.5865 10.5786 17.8253 10.8174 17.8253 11.1119V14.2307H14.2078V17.7687H17.8253V20.8875C17.8253 21.182 17.5865 21.4208 17.292 21.4208H14.7407C14.4462 21.4208 14.2074 21.182 14.2074 20.8875V17.8828H11.1232C10.8287 17.8828 10.5899 17.644 10.5899 17.3495V14.764C10.5899 14.4695 10.8287 14.2307 11.1232 14.2307H14.2078L14.2075 11.112ZM17.8253 14.2307H20.9106C21.2051 14.2307 21.4439 14.4695 21.4439 14.764V17.3495C21.4439 17.644 21.2051 17.8828 20.9106 17.8828H17.826L17.8253 14.2307Z" fill="#0C0B0B"/>
<defs>
<linearGradient id="paint0_linear_97_5" x1="2.66667" y1="29.3333" x2="30.6376" y2="1.97032" gradientUnits="userSpaceOnUse">
<stop stop-color="#BDFDE2"/>
<stop offset="1" stop-color="#9BDAF6"/>
</linearGradient>
</defs>
</svg>
