<svg width="309" height="183" viewBox="0 0 309 183" fill="none" xmlns="http://www.w3.org/2000/svg">
<path d="M32.2735 18.0623C36.4684 15.8142 40.1771 15.0243 44.0681 14.1737C51.1813 12.6548 56.7138 12.594 58.0513 12.594C69.6027 12.4118 73.3721 10.4067 105.959 6.76122C115.808 5.66757 127.299 4.39166 142.437 3.41953C159.825 2.26513 168.519 1.71832 180.192 2.14363C183.414 2.26514 196.303 3.84485 221.899 7.00426C221.899 7.00426 229.377 7.91563 257.1 12.4725C261.66 13.2016 269.746 14.599 279.23 18.9128C283.851 20.9786 287.255 22.6191 290.842 25.9608C296.375 31.1252 298.564 36.8972 301.421 44.6742C304.765 53.5449 305.859 60.7751 306.103 62.294C308.352 77.4835 305.738 89.4529 305.13 92.187C303.853 97.5944 300.57 111.143 289.566 123.66C284.824 129.128 280.507 133.988 273.698 136.844C269.685 138.545 266.098 138.971 260.809 142.373C259.167 143.406 257.769 144.5 255.276 145.229C251.993 146.201 249.805 145.593 246.643 145.532C243.36 145.411 242.874 145.958 235.335 147.294C226.215 148.935 221.716 149.725 216.123 149.482C211.624 149.299 211.685 148.692 204.997 148.266C200.316 147.963 196.911 148.084 193.203 148.145C186.637 148.327 180.071 148.388 173.505 148.57C166.27 148.753 156.117 149.056 143.471 148.753C140.735 148.692 132.163 148.51 120.976 147.841C117.815 147.659 115.14 147.477 113.133 147.355C108.209 149.36 105.412 151.973 103.71 153.978C101.582 156.53 100.974 158.595 97.4477 162.484C95.8062 164.307 95.3198 164.489 93.3743 166.555C91.4896 168.56 89.0577 171.294 86.5043 175C87.9026 169.167 89.5441 164.732 90.8816 161.755C91.7328 159.811 92.5231 158.231 93.2527 155.74C94.4079 151.79 94.7118 148.388 94.7118 146.018C92.7663 146.14 89.7873 146.444 86.0787 146.93C81.5189 147.537 78.2967 148.145 77.2631 148.327C68.8124 149.785 59.632 148.206 49.6006 146.322C39.6299 144.5 34.6445 143.588 31.5439 142.069C21.5124 137.148 15.7975 128.885 9.53544 119.771C5.94842 114.607 4.18531 112.055 2.96938 108.106C1.14547 102.09 2.30061 99.1133 3.15177 86.2326C4.18531 70.8609 2.84778 70.8609 4.4285 63.3269C5.82683 56.5828 7.95472 51.7829 10.6906 45.5856C13.9128 38.2338 16.2231 33.191 21.026 27.5405C23.5187 24.7456 26.7409 20.9786 32.2735 18.0623Z" fill="white" stroke="black" stroke-width="3" stroke-miterlimit="10"/>
</svg>
