<svg width="273" height="164" viewBox="0 0 273 164" fill="none" xmlns="http://www.w3.org/2000/svg">
<path d="M244.242 16.2981C240.566 14.297 237.268 13.5939 233.862 12.8367C227.591 11.4846 222.725 11.4305 221.536 11.4305C211.372 11.2682 208.02 9.48342 179.313 6.23831C170.663 5.26478 160.499 4.12899 147.145 3.26363C131.792 2.23601 124.115 1.74926 113.843 2.12785C110.977 2.23602 99.6243 3.64224 77.0261 6.45466C77.0261 6.45466 70.4305 7.26594 45.9942 11.3223C41.9935 11.9713 34.8572 13.2153 26.4775 17.0553C22.4228 18.8942 19.4494 20.3545 16.2597 23.3292C11.394 27.9264 9.44779 33.0645 6.90684 39.9874C3.98746 47.8839 3.01433 54.32 2.79808 55.6721C0.797761 69.1934 3.12246 79.8481 3.66308 82.282C4.7984 87.0955 7.66372 99.1565 17.395 110.298C21.6119 115.166 25.3963 119.493 31.3972 122.035C34.9113 123.549 38.101 123.927 42.7504 126.956C44.156 127.876 45.4535 128.849 47.6701 129.498C50.5895 130.364 52.5357 129.823 55.2929 129.769C58.2123 129.661 58.6448 130.147 65.2405 131.337C73.2417 132.798 77.2964 133.501 82.2161 133.284C86.1627 133.122 86.1627 132.581 92.0015 132.203C96.1643 131.932 99.1378 132.04 102.382 132.094C108.166 132.257 113.951 132.311 119.79 132.473C126.169 132.635 135.089 132.906 146.28 132.635C148.713 132.581 156.282 132.419 166.121 131.824C168.933 131.662 171.311 131.499 173.041 131.391C177.366 133.176 179.853 135.502 181.367 137.287C183.259 139.558 183.8 141.397 186.881 144.858C188.341 146.481 188.72 146.643 190.45 148.482C192.126 150.267 194.288 152.701 196.505 156C195.315 150.808 193.801 146.86 192.666 144.209C191.909 142.479 191.261 141.072 190.558 138.855C189.531 135.339 189.26 132.311 189.26 130.201C190.936 130.31 193.639 130.58 196.883 131.013C200.938 131.553 203.749 132.094 204.668 132.257C212.129 133.555 220.184 132.148 229.05 130.472C237.863 128.849 242.242 128.038 244.945 126.686C253.757 122.305 258.839 114.949 264.353 106.837C267.489 102.239 269.057 99.9678 270.138 96.4523C271.76 91.0979 270.733 88.4477 269.976 76.9816C269.057 63.2981 270.246 63.2981 268.84 56.5915C267.597 50.5881 265.705 46.3154 263.326 40.7987C260.461 34.2544 258.46 29.7653 254.244 24.7354C251.973 22.1934 249.054 18.8942 244.242 16.2981Z" fill="white" stroke="black" stroke-width="3" stroke-miterlimit="10"/>
</svg>
