<svg width="23" height="23" viewBox="0 0 23 23" fill="none" xmlns="http://www.w3.org/2000/svg">
<path d="M18.0661 0.400026C16.7851 0.399042 15.556 0.901213 14.6486 1.79631C13.7413 2.6914 13.2299 3.90628 13.2266 5.17426V10.4677C12.7281 10.501 12.2185 10.522 11.6902 10.522C11.1619 10.522 10.6548 10.543 10.1539 10.5726V5.17426C10.1335 3.91728 9.61473 2.7186 8.70947 1.83682C7.80422 0.955048 6.58505 0.460854 5.31498 0.460854C4.0449 0.460854 2.82573 0.955048 1.92048 1.83682C1.01523 2.7186 0.496453 3.91728 0.476074 5.17426V17.8258C0.496453 19.0828 1.01523 20.2815 1.92048 21.1632C2.82573 22.045 4.0449 22.5392 5.31498 22.5392C6.58505 22.5392 7.80422 22.045 8.70947 21.1632C9.61473 20.2815 10.1335 19.0828 10.1539 17.8258V12.5323C10.6523 12.499 11.1619 12.4781 11.6902 12.4781C12.2185 12.4781 12.7257 12.4571 13.2266 12.4275V17.8258C13.2469 19.0828 13.7657 20.2815 14.671 21.1632C15.5762 22.045 16.7954 22.5392 18.0655 22.5392C19.3355 22.5392 20.5547 22.045 21.4599 21.1632C22.3652 20.2815 22.884 19.0828 22.9044 17.8258V5.17426C22.9011 3.90649 22.3898 2.6918 21.4827 1.79674C20.5756 0.901684 19.3469 0.399368 18.0661 0.400026ZM5.31435 2.35609C6.07037 2.35576 6.79564 2.6523 7.33104 3.18063C7.86644 3.70896 8.16824 4.42594 8.17022 5.17426V10.7798C6.75448 10.9828 5.37195 11.3697 4.05837 11.9305C3.48923 12.1777 2.95346 12.4942 2.46347 12.8727V5.17426C2.46545 4.4268 2.76656 3.71056 3.30088 3.18237C3.83521 2.65418 4.5592 2.35707 5.31435 2.35609ZM8.17022 17.8258C8.17022 18.5755 7.86934 19.2945 7.33376 19.8246C6.79818 20.3548 6.07178 20.6526 5.31435 20.6526C4.55693 20.6526 3.83053 20.3548 3.29495 19.8246C2.75937 19.2945 2.45849 18.5755 2.45849 17.8258V16.5567C2.45849 15.4356 3.35562 14.3737 4.85956 13.7126C5.91926 13.2601 7.03116 12.9382 8.17022 12.7543V17.8258ZM18.0661 20.644C17.3101 20.6443 16.5848 20.3478 16.0494 19.8194C15.514 19.2911 15.2122 18.5741 15.2102 17.8258V12.2203C16.626 12.0172 18.0085 11.6303 19.3221 11.0696C19.8912 10.8223 20.427 10.5058 20.917 10.1273V17.8258C20.915 18.5733 20.6139 19.2895 20.0795 19.8177C19.5452 20.3459 18.8212 20.643 18.0661 20.644ZM18.5209 9.28003C17.4612 9.73256 16.3493 10.0544 15.2102 10.2383V5.17426C15.2102 4.42455 15.5111 3.70554 16.0467 3.17541C16.5823 2.64528 17.3087 2.34746 18.0661 2.34746C18.8235 2.34746 19.5499 2.64528 20.0855 3.17541C20.6211 3.70554 20.9219 4.42455 20.9219 5.17426V6.44336C20.9219 7.55953 20.0248 8.62143 18.5209 9.28003Z" fill="#0BAFEE"/>
<path d="M18.0661 0.400026C16.7851 0.399042 15.556 0.901213 14.6486 1.79631C13.7413 2.6914 13.2299 3.90628 13.2266 5.17426V10.4677C12.7281 10.501 12.2185 10.522 11.6902 10.522C11.1619 10.522 10.6548 10.543 10.1539 10.5726V5.17426C10.1335 3.91728 9.61473 2.7186 8.70947 1.83682C7.80422 0.955048 6.58505 0.460854 5.31498 0.460854C4.0449 0.460854 2.82573 0.955048 1.92048 1.83682C1.01523 2.7186 0.496453 3.91728 0.476074 5.17426V17.8258C0.496453 19.0828 1.01523 20.2815 1.92048 21.1632C2.82573 22.045 4.0449 22.5392 5.31498 22.5392C6.58505 22.5392 7.80422 22.045 8.70947 21.1632C9.61473 20.2815 10.1335 19.0828 10.1539 17.8258V12.5323C10.6523 12.499 11.1619 12.4781 11.6902 12.4781C12.2185 12.4781 12.7257 12.4571 13.2266 12.4275V17.8258C13.2469 19.0828 13.7657 20.2815 14.671 21.1632C15.5762 22.045 16.7954 22.5392 18.0655 22.5392C19.3355 22.5392 20.5547 22.045 21.4599 21.1632C22.3652 20.2815 22.884 19.0828 22.9044 17.8258V5.17426C22.9011 3.90649 22.3898 2.6918 21.4827 1.79674C20.5756 0.901684 19.3469 0.399368 18.0661 0.400026ZM5.31435 2.35609C6.07037 2.35576 6.79564 2.6523 7.33104 3.18063C7.86644 3.70896 8.16824 4.42594 8.17022 5.17426V10.7798C6.75448 10.9828 5.37195 11.3697 4.05837 11.9305C3.48923 12.1777 2.95346 12.4942 2.46347 12.8727V5.17426C2.46545 4.4268 2.76656 3.71056 3.30088 3.18237C3.83521 2.65418 4.5592 2.35707 5.31435 2.35609ZM8.17022 17.8258C8.17022 18.5755 7.86934 19.2945 7.33376 19.8246C6.79818 20.3548 6.07178 20.6526 5.31435 20.6526C4.55693 20.6526 3.83053 20.3548 3.29495 19.8246C2.75937 19.2945 2.45849 18.5755 2.45849 17.8258V16.5567C2.45849 15.4356 3.35562 14.3737 4.85956 13.7126C5.91926 13.2601 7.03116 12.9382 8.17022 12.7543V17.8258ZM18.0661 20.644C17.3101 20.6443 16.5848 20.3478 16.0494 19.8194C15.514 19.2911 15.2122 18.5741 15.2102 17.8258V12.2203C16.626 12.0172 18.0085 11.6303 19.3221 11.0696C19.8912 10.8223 20.427 10.5058 20.917 10.1273V17.8258C20.915 18.5733 20.6139 19.2895 20.0795 19.8177C19.5452 20.3459 18.8212 20.643 18.0661 20.644ZM18.5209 9.28003C17.4612 9.73256 16.3493 10.0544 15.2102 10.2383V5.17426C15.2102 4.42455 15.5111 3.70554 16.0467 3.17541C16.5823 2.64528 17.3087 2.34746 18.0661 2.34746C18.8235 2.34746 19.5499 2.64528 20.0855 3.17541C20.6211 3.70554 20.9219 4.42455 20.9219 5.17426V6.44336C20.9219 7.55953 20.0248 8.62143 18.5209 9.28003Z" fill="url(#paint0_linear_8_568)"/>
<defs>
<linearGradient id="paint0_linear_8_568" x1="23" y1="1.5" x2="-1.5" y2="23" gradientUnits="userSpaceOnUse">
<stop stop-color="#61F9C0"/>
<stop offset="1" stop-color="#61F9C0" stop-opacity="0"/>
</linearGradient>
</defs>
</svg>
