<svg width="32" height="21" viewBox="0 0 32 21" fill="none" xmlns="http://www.w3.org/2000/svg">
<path fill-rule="evenodd" clip-rule="evenodd" d="M20.2647 0.620673C20.0671 0.42328 19.8325 0.266831 19.5742 0.160317C19.3159 0.0538029 19.0391 -0.000677543 18.7597 6.35979e-06H18.7542C18.4743 -5.57433e-05 18.1971 0.0555472 17.9388 0.163575C17.6806 0.271603 17.4464 0.429896 17.25 0.629229L0.62132 17.3203C0.423272 17.5178 0.266389 17.7526 0.159745 18.0111C0.0531009 18.2695 -0.00118751 18.5466 1.96995e-05 18.8261C0.00157684 19.3947 0.225027 19.929 0.628327 20.3303C0.82543 20.5277 1.05967 20.6841 1.31757 20.7907C1.57546 20.8972 1.8519 20.9517 2.13097 20.951C2.70166 20.951 3.23966 20.7278 3.64296 20.3241L20.2709 3.63223C20.6689 3.23154 20.8917 2.68962 20.8905 2.12517C20.8893 1.56071 20.6643 1.01972 20.2647 0.620673Z" fill="#2DB8E3"/>
<path fill-rule="evenodd" clip-rule="evenodd" d="M29.919 0.202947C29.5292 0.040318 29.0997 -0.00222011 28.6856 0.0807953C28.2715 0.163811 27.8917 0.36859 27.5949 0.668836L10.9646 17.3615C10.5663 17.7621 10.3434 18.3042 10.3449 18.8689C10.3463 19.4335 10.572 19.9745 10.9724 20.3731C11.3737 20.7709 11.9166 20.9935 12.4819 20.9919C13.0473 20.9903 13.5889 20.7646 13.9878 20.3645L26.9729 7.3305V18.8626C26.9733 19.4273 27.198 19.9687 27.5977 20.368C27.9974 20.7673 28.5393 20.9918 29.1046 20.9922C29.6698 20.9918 30.2118 20.7673 30.6115 20.368C31.0112 19.9687 31.2359 19.4273 31.2363 18.8626V2.1715C31.2376 1.74971 31.1129 1.33713 30.8782 0.986481C30.6436 0.635829 30.3096 0.363031 29.919 0.202947Z" fill="#3840C7"/>
</svg>
