<svg width="16" height="27" viewBox="0 0 16 27" fill="none" xmlns="http://www.w3.org/2000/svg">
<path fill-rule="evenodd" clip-rule="evenodd" d="M14 8V19C14 22.3137 11.3137 25 8 25C4.68629 25 2 22.3137 2 19V8C2 4.68629 4.68629 2 8 2C11.3137 2 14 4.68629 14 8ZM0 8C0 3.58172 3.58172 0 8 0C12.4183 0 16 3.58172 16 8V19C16 23.4183 12.4183 27 8 27C3.58172 27 0 23.4183 0 19V8ZM8 14C10.7614 14 13 11.7614 13 9C13 6.23858 10.7614 4 8 4C5.23858 4 3 6.23858 3 9C3 11.7614 5.23858 14 8 14Z" fill="url(#paint0_linear_8_618)"/>
<defs>
<linearGradient id="paint0_linear_8_618" x1="8" y1="0" x2="8" y2="27" gradientUnits="userSpaceOnUse">
<stop stop-color="#7015FB"/>
<stop offset="0.39375" stop-color="#7A27F8" stop-opacity="0.905631"/>
<stop offset="0.9996" stop-color="#853DF4" stop-opacity="0.797169"/>
<stop offset="0.9997" stop-color="#9E6AEC" stop-opacity="0.564583"/>
<stop offset="0.9998" stop-color="#8032F6" stop-opacity="0.851042"/>
<stop offset="0.9999" stop-color="#9E6AEC" stop-opacity="0.564583"/>
<stop offset="1" stop-color="#D9D9D9" stop-opacity="0"/>
</linearGradient>
</defs>
</svg>
