<svg width="166" height="200" viewBox="0 0 166 200" fill="none" xmlns="http://www.w3.org/2000/svg">
<path d="M31.6016 154.405C37.6089 152.747 42.3734 151.711 45.895 150.882C55.6311 148.81 60.8098 148.395 65.7814 144.043C67.4387 142.593 68.6816 140.935 69.5102 139.899C69.5102 132.024 69.5102 124.149 69.7173 116.275C67.2315 115.239 61.4313 112.752 57.0811 106.742C54.181 102.805 52.9381 99.0747 52.3166 96.5879C48.5879 94.9301 46.7236 92.6506 45.6878 91.6144C42.7877 87.6771 40.9233 81.4602 43.6163 76.2795C44.6521 74.2072 46.1021 73.1711 47.1379 72.3421C47.5522 72.5494 48.1736 72.7566 48.5879 73.1711C49.0022 70.8915 49.6237 67.3686 50.6594 63.2241C52.9381 53.2771 55.0096 44.7807 59.9812 35.8699C62.0527 32.1397 65.5743 26.7518 71.1674 21.1566C73.6532 22.6072 76.9676 24.6795 80.6963 27.3735C88.3609 32.7614 96.6469 38.7711 104.104 48.0964C108.04 53.0698 113.633 61.5662 117.362 74C117.776 73.5855 119.226 72.3421 121.298 72.3421C123.577 72.3421 125.234 74 126.062 74.8289C129.17 78.1445 128.755 82.9108 128.755 83.947C128.548 85.1903 128.134 90.7855 123.577 93.2723C121.712 94.3084 119.848 94.5156 118.812 94.3084C118.398 96.3807 117.776 99.0747 116.326 101.769C112.183 110.058 104.726 113.995 101.826 115.239C101.411 121.663 100.997 128.087 100.583 134.304C103.69 138.034 108.247 142.8 114.669 147.152C122.541 152.54 129.998 155.234 135.384 156.892C135.384 153.99 135.591 149.431 135.177 144.043C134.556 133.682 133.313 128.708 132.484 122.284C130.205 105.499 135.384 106.12 133.727 86.4337C133.105 78.9735 132.07 74.4144 131.241 60.9445C130.827 53.6915 131.034 53.8988 130.827 50.7903C130.205 44.5735 128.962 29.2385 117.155 17.012C104.726 4.16383 88.568 2.92045 85.8751 2.71322C81.7321 2.506 69.0959 1.88431 58.1169 9.96624C53.7667 13.2819 51.488 16.3903 47.9665 21.3638C39.8876 32.7614 36.366 44.159 34.916 50.7903C33.8802 54.9349 33.4659 58.2506 33.0516 80.6313C32.6373 99.2819 32.6373 114.824 32.4302 126.014C31.8087 138.448 31.6016 148.395 31.6016 154.405Z" fill="#6D5A55"/>
<path d="M2.80762 198.13C3.42907 192.12 5.29343 183.831 10.265 175.335C13.1652 170.361 19.1725 160.207 31.6016 154.405C38.2304 151.296 44.4449 150.675 48.1736 150.467C51.6952 157.513 55.8382 164.766 60.1884 172.226C61.2241 173.884 62.0527 175.335 63.0885 176.993C65.16 176.993 68.0601 176.993 71.7888 176.993C80.6963 176.993 86.9108 177.407 88.9824 177.407C94.9897 177.614 104.104 176.993 116.948 173.263C117.362 169.118 117.362 164.559 117.155 159.586C116.948 156.27 116.741 152.954 116.326 150.053C118.812 151.504 122.748 153.783 127.927 155.855C135.177 158.964 137.041 158.549 140.977 160.622C148.435 164.559 152.163 171.398 155.478 177.2C160.035 185.696 161.485 193.778 161.899 199.581C108.869 199.166 55.8382 198.545 2.80762 198.13Z" fill="#656D83"/>
<path d="M68.2672 20.7422C64.3313 25.094 61.0169 29.8603 58.1168 34.8338C52.1094 45.6097 48.5879 57.6289 47.7593 70.2699L51.9023 70.4771C52.7309 58.2506 56.0453 47.0603 61.6384 36.6988C64.3313 31.9325 67.6458 27.5807 71.1673 23.4362L68.2672 20.7422Z" fill="black"/>
<path d="M156.514 173.884C154.235 170.361 149.47 162.901 140.356 157.928C139.32 157.306 138.491 156.892 137.663 156.477C137.663 153.783 137.456 151.089 137.249 148.602C136.834 144.458 136.42 141.349 136.006 139.07L135.798 137.619C135.177 133.267 134.97 129.123 134.556 120.627C134.141 112.13 134.141 103.219 134.556 94.1012L130.413 93.894C130.205 103.012 130.205 111.923 130.413 120.627C130.827 129.33 130.827 133.682 131.655 138.241L131.863 139.692C132.277 141.971 132.691 144.872 133.105 148.81C133.313 150.882 133.313 152.747 133.313 154.819C133.313 154.819 133.313 154.819 133.105 154.819C130.827 154.198 128.341 153.369 123.991 151.089C119.226 148.602 114.669 145.494 110.733 142.178C107.626 139.484 104.726 136.376 102.033 133.06L102.447 116.689C105.554 115.239 108.455 113.374 110.733 110.887C114.669 107.157 116.741 103.219 117.362 101.561C117.983 100.111 118.398 98.453 118.812 96.588C120.676 96.1735 123.369 95.3446 125.648 93.0651C127.512 91.2 128.341 89.1277 128.755 87.6771C129.584 85.3976 131.241 80.8386 128.962 76.2795C127.305 72.9639 125.027 71.0988 122.334 70.6844C120.469 70.4771 118.812 70.8916 117.362 71.5133C116.741 69.441 116.119 67.3687 115.291 65.0892C110.733 53.2771 103.897 46.0241 98.5113 40.2217C92.0896 33.3832 84.425 27.3735 76.139 22.4L74.0675 25.9229C81.9392 30.6892 89.1895 36.2844 95.404 42.9157C97.4756 45.1952 99.9614 47.682 102.24 50.5832C101.204 50.3759 100.169 50.1687 99.1328 50.1687C97.2684 50.1687 94.7826 50.1687 92.5039 50.1687L92.7111 54.3133C94.7826 54.3133 97.0613 54.3133 99.1328 54.5205C101.619 54.7277 103.897 55.1422 106.383 55.7639C108.455 58.8723 110.319 62.6024 111.976 66.747C115.291 75.6579 115.705 82.9109 115.912 86.0193C116.119 92.0289 115.498 97.0024 114.048 100.111C113.426 101.354 111.769 104.67 108.247 107.986C103.897 112.13 99.1328 113.995 95.8183 114.824L96.8541 118.761C97.4755 118.554 98.097 118.347 98.5113 118.347L98.097 134.511L98.5113 135.133C101.411 138.863 104.726 142.386 108.247 145.287C110.319 146.945 112.39 148.602 114.876 150.26C115.498 156.27 115.912 162.28 116.326 168.289C116.948 178.651 117.362 189.012 117.362 199.374H121.505C121.505 189.012 121.091 178.443 120.469 168.082C120.055 163.108 119.848 157.928 119.226 152.954C120.262 153.576 121.091 153.99 122.127 154.612C126.891 157.099 129.584 157.928 132.07 158.757C134.141 159.378 135.798 159.793 138.284 161.451C146.363 166.01 150.92 172.848 152.992 176.164C158.585 184.868 160.449 193.571 160.864 199.374L165.007 198.959C164.385 192.949 162.521 183.417 156.514 173.884ZM121.919 75.0362C123.991 75.4506 125.027 77.5229 125.441 78.3518C126.891 81.4603 125.648 84.7759 125.027 86.641C124.612 87.8844 124.198 89.1277 122.955 90.5783C121.919 91.6145 120.676 92.2362 119.641 92.6506C119.848 90.5783 119.848 88.2988 119.641 86.0193C119.641 84.1542 119.434 80.6313 118.605 76.2795C119.434 75.4506 120.676 74.8289 121.919 75.0362Z" fill="black"/>
<path d="M92.2968 174.92C89.6038 174.92 87.7394 174.92 85.0465 174.92C83.3893 174.92 81.7321 174.713 79.2462 174.713C74.4818 174.713 69.7173 174.713 64.9528 174.92C63.5028 171.812 62.0527 168.704 60.3955 165.595C57.9097 160.829 55.4239 156.063 52.7309 151.504C56.2525 150.675 61.2241 149.431 66.4029 146.116C68.2673 144.872 69.9245 143.629 71.5817 141.971L72.2031 141.349L72.6174 114.617L71.3745 113.995C67.2315 112.337 63.7099 109.851 60.6027 106.949C58.9455 105.292 56.0454 102.39 54.181 97.2096C52.9381 93.894 52.5238 90.5783 52.9381 87.0554L48.7951 86.641C48.5879 88.506 48.5879 90.1638 48.7951 92.0289C48.3808 91.8217 48.1736 91.4072 47.7593 91.2C47.7593 91.2 42.9949 86.2265 44.2378 80.4241C44.8592 77.7301 46.3093 75.4506 46.7236 75.4506C46.9307 75.4506 47.345 75.8651 48.1736 77.1084L51.9023 75.0361C50.2451 71.9277 48.3808 71.306 47.1379 71.306C42.9949 71.306 40.9233 76.694 40.3019 79.5952C38.6447 87.4699 44.6521 93.894 44.8592 94.1012C46.3093 95.5518 47.9665 96.7952 50.038 97.8313C50.038 98.0385 50.2451 98.453 50.2451 98.6602C52.3166 104.463 55.8382 108.193 57.4954 109.851C60.6027 112.959 64.1242 115.446 68.2673 117.311L67.853 139.484C66.61 140.52 65.16 141.557 63.9171 142.593C58.7383 145.908 53.7667 146.945 50.2451 147.773L49.6237 147.981C43.202 149.224 37.1946 150.467 32.0159 152.54C32.223 147.773 32.4302 143.007 32.6373 138.241C32.8445 129.33 32.8445 123.942 33.0516 116.482C33.0516 112.337 33.0516 107.778 33.2588 101.561C33.6731 74.2072 34.2945 68.612 34.5017 65.5036C35.7446 53.4843 36.366 47.6819 39.4733 40.0145C44.4449 26.7518 51.9023 19.0843 54.8024 16.1831C58.324 12.8675 62.6742 8.72289 69.9245 6.44337C76.7604 4.37108 82.7678 4.99277 86.7037 5.40723C88.9823 5.61445 94.9897 6.23614 101.411 9.34458C114.255 15.5614 120.055 27.5807 122.748 33.3831C126.684 41.8795 128.755 50.9976 128.548 60.5301H132.691C132.898 50.1687 130.62 40.4289 126.477 31.5181C123.784 25.7157 117.362 12.2458 103.069 5.61445C96.2326 2.29879 89.6038 1.67711 86.9108 1.26265C82.5607 0.84819 76.139 0.0192745 68.4744 2.50602C60.3955 4.99277 55.4239 9.75903 51.6952 13.0747C48.5879 15.9759 40.7162 24.2651 35.3303 38.3566C32.0159 46.853 31.3944 53.2771 30.1515 64.8819C29.7372 68.1976 29.1157 73.7928 28.9086 101.354C28.9086 107.571 28.7014 112.13 28.7014 116.275C28.7014 123.735 28.7014 129.123 28.2871 138.034C28.08 143.422 27.8728 149.017 27.6657 154.405C15.8581 160.414 9.85072 171.19 7.36491 175.957C3.63619 182.795 1.15038 190.463 0.321777 198.337L4.46479 198.752C5.2934 191.292 7.57206 184.246 11.0936 177.822C13.5794 173.263 19.3797 162.694 30.773 157.513C35.7446 155.234 41.7519 153.783 48.3808 152.54C51.2809 157.513 53.9738 162.487 56.4597 167.667C61.6384 177.822 66.1957 188.39 70.1316 199.166L74.0675 197.716C71.7888 191.499 69.303 185.282 66.4029 179.272C70.5459 179.065 74.6889 179.065 78.8319 179.065C81.1106 179.065 82.975 179.272 84.425 179.272C86.2894 179.272 87.7394 179.48 89.3966 179.48C90.2252 179.48 91.0538 179.48 91.8825 179.48C96.6469 179.272 101.411 178.651 106.176 177.614L105.347 173.47C101.411 174.092 96.8541 174.713 92.2968 174.92Z" fill="black"/>
<path d="M65.3672 56.3855C67.2316 55.5566 69.0959 55.1422 71.1674 54.7277L70.546 50.5831C68.2673 50.9976 65.9887 51.6193 63.9171 52.4482C61.017 53.6916 58.3241 55.3494 56.0454 57.4217L58.7384 60.5301C60.6027 58.8723 62.8814 57.4217 65.3672 56.3855Z" fill="black"/>
<path d="M93.1254 83.7397C92.2968 81.8747 91.4682 80.0096 90.6396 77.9373C89.811 75.865 88.9824 73.7927 88.1538 71.7205L84.2179 73.1711C85.0465 75.2433 85.8751 77.3156 86.7037 79.3879C87.5323 81.4602 88.3609 83.3253 89.3967 85.3976L93.1254 83.7397Z" fill="black"/>
<path d="M72.8246 94.1012L73.446 96.5879C74.0675 98.8674 75.1032 100.733 76.5533 102.598C77.5891 103.634 80.9035 107.364 86.7037 107.778C86.9108 107.778 87.3251 107.778 87.5323 107.778C90.8467 107.778 94.1611 106.535 96.8541 104.255C100.583 101.147 101.826 97.4168 102.24 95.3445L102.654 92.6506L99.9613 92.8578C95.8183 93.2723 91.6753 93.4795 87.5323 93.6867C83.5964 93.8939 79.6606 94.1012 75.7247 94.1012H72.8246ZM87.5323 97.8313C90.6396 97.6241 93.954 97.4168 97.0612 97.2096C96.4398 98.453 95.6112 99.9036 94.1611 101.147C92.0896 103.012 89.3967 103.841 86.9108 103.634C82.975 103.426 80.4892 100.733 79.6606 99.9036C79.2463 99.2819 78.832 98.8674 78.4177 98.2458C81.5249 98.0385 84.6322 97.8313 87.5323 97.8313Z" fill="black"/>
<path d="M71.5816 74.4144C73.5265 74.4144 75.1032 72.8372 75.1032 70.8915C75.1032 68.9459 73.5265 67.3687 71.5816 67.3687C69.6367 67.3687 68.0601 68.9459 68.0601 70.8915C68.0601 72.8372 69.6367 74.4144 71.5816 74.4144Z" fill="black"/>
<path d="M100.997 73.3783C102.942 73.3783 104.519 71.8011 104.519 69.8554C104.519 67.9098 102.942 66.3325 100.997 66.3325C99.0522 66.3325 97.4756 67.9098 97.4756 69.8554C97.4756 71.8011 99.0522 73.3783 100.997 73.3783Z" fill="black"/>
<path d="M45.6503 170.689C46.3968 169.144 45.7494 167.285 44.2042 166.538C42.6591 165.791 40.8013 166.439 40.0548 167.985C39.3083 169.531 39.9557 171.389 41.5009 172.136C43.0461 172.883 44.9038 172.235 45.6503 170.689Z" fill="white"/>
<path d="M26.5334 189.246C27.2799 187.7 26.6324 185.842 25.0873 185.095C23.5421 184.348 21.6843 184.996 20.9378 186.542C20.1913 188.087 20.8388 189.946 22.384 190.693C23.9291 191.439 25.7869 190.792 26.5334 189.246Z" fill="white"/>
<path d="M54.7196 192.826C55.4661 191.28 54.8186 189.422 53.2734 188.675C51.7283 187.928 49.8705 188.576 49.124 190.122C48.3775 191.668 49.0249 193.526 50.5701 194.273C52.1153 195.02 53.9731 194.372 54.7196 192.826Z" fill="white"/>
<path d="M138.812 170.603C139.559 169.057 138.911 167.199 137.366 166.452C135.821 165.705 133.963 166.353 133.217 167.899C132.47 169.444 133.118 171.303 134.663 172.05C136.208 172.796 138.066 172.149 138.812 170.603Z" fill="white"/>
<path d="M130.184 191.89C130.93 190.344 130.283 188.485 128.737 187.739C127.192 186.992 125.334 187.639 124.588 189.185C123.841 190.731 124.489 192.589 126.034 193.336C127.579 194.083 129.437 193.435 130.184 191.89Z" fill="white"/>
<path d="M155.214 187.103C155.96 185.557 155.313 183.698 153.768 182.952C152.223 182.205 150.365 182.853 149.618 184.398C148.872 185.944 149.519 187.803 151.065 188.549C152.61 189.296 154.467 188.648 155.214 187.103Z" fill="white"/>
</svg>
