<svg width="135" height="154" viewBox="0 0 135 154" fill="none" xmlns="http://www.w3.org/2000/svg">
<path d="M39.0735 59.4328C37.3474 54.0035 34.052 40.9095 39.2304 26.8574C40.4858 23.3444 42.8397 17.4361 48.4888 12.1666C56.8057 4.66148 66.5348 3.70339 70.144 3.38402C76.5778 2.74529 83.1685 3.86307 89.2885 6.25832L90.3869 3.22435C83.7962 0.50974 76.7347 -0.448373 69.8302 0.190359C65.9071 0.509726 55.3934 1.46782 46.2919 9.77134C39.8581 15.6796 37.3474 22.3863 36.092 25.58C30.4428 41.3886 35.4643 56.0794 37.3474 60.8699C38.132 60.3909 38.6028 59.9118 39.0735 59.4328Z" fill="black"/>
<path d="M100.587 17.4362C96.6638 19.6717 92.4269 19.6717 89.4454 19.3523L88.9746 22.546C89.9161 22.7057 91.0146 22.7057 92.2699 22.7057C95.2515 22.7057 98.7037 22.067 101.999 20.1508C104.039 19.033 107.491 16.9571 108.119 12.965C108.276 12.486 108.59 9.452 106.707 7.05676C105.294 5.14056 103.411 4.66151 101.058 3.86309C99.0176 3.22436 96.9776 2.905 94.7807 3.06468V6.25834C96.6638 6.25834 98.5468 6.41802 100.273 7.05676C102.627 7.69549 103.568 8.01486 104.353 9.13264C105.451 10.5698 105.138 12.486 105.138 12.6457C104.824 15.0409 102.156 16.4781 100.587 17.4362Z" fill="black"/>
<path d="M102.47 46.9776C102.47 43.9436 102.313 40.2709 101.685 36.2788C100.587 29.8915 98.5469 24.7816 96.8207 20.9492C96.193 21.2686 95.7223 21.4283 95.0946 21.7476C96.9776 27.8156 97.9192 32.9255 98.5468 36.7579C99.4884 42.0274 99.8022 44.742 99.9592 47.776C99.9592 50.1712 99.8022 52.0874 100.273 52.2471C100.744 52.0874 101.685 49.3728 102.47 46.9776Z" fill="black"/>
<path d="M80.0301 26.8574C79.7162 27.0171 78.7747 27.4962 76.4209 26.2187C74.6948 25.4203 73.7532 24.1429 72.9686 23.1848C72.184 22.2267 71.0856 20.9492 69.6733 21.4282C68.4179 21.9073 68.261 23.1848 68.261 23.9832C68.261 24.6219 68.1041 25.4203 67.7902 26.3784C67.4764 27.0171 67.0056 28.4543 66.0641 29.093C64.6518 29.8914 62.4549 29.093 60.7287 27.9752C58.0611 26.3784 56.9626 23.5041 56.6488 22.067L53.6673 22.8654C54.138 24.7816 55.5503 28.4543 59.1595 30.6898C60.258 31.3286 62.4549 32.606 64.8087 32.606C65.7502 32.606 66.8487 32.4464 67.7902 31.8076C69.6733 30.6898 70.6148 28.4543 70.9286 27.6559C71.0856 27.0171 71.2425 26.5381 71.3994 26.059C72.3409 27.1768 73.5963 28.4543 75.3224 29.2527C78.7747 31.0092 80.9716 30.3705 82.0701 29.5721C83.9531 28.2946 84.267 25.8994 84.4239 24.3025C84.5808 22.3863 84.4239 20.4701 83.6393 18.7136L80.6578 19.8314C81.1286 21.2685 81.2855 22.546 81.1286 23.9832C80.8147 24.9413 80.6578 26.3784 80.0301 26.8574Z" fill="black"/>
<path d="M96.193 50.1712C96.3499 47.776 96.193 42.5064 93.2115 37.0772C91.3284 33.5642 88.8177 31.1689 87.2485 29.8915C87.2485 31.1689 87.4054 32.2867 87.4054 33.5642C88.3469 34.8417 89.4454 36.5982 90.3869 38.5144C92.5838 43.1452 92.8976 47.2969 93.0546 50.0115C92.8976 51.1293 93.5253 51.9277 94.3099 52.0874C95.2515 52.4068 96.193 51.4487 96.193 50.1712Z" fill="black"/>
<path d="M99.1745 65.6604C98.0761 66.7782 96.8207 67.4169 96.0361 67.7363L96.9776 70.7702C98.7038 70.1315 100.273 69.1734 101.528 67.896C102.47 66.7782 104.196 64.3829 104.353 61.0296C104.353 59.7521 104.51 56.2391 101.842 54.6423C99.6453 53.2051 96.9776 54.3229 96.0361 54.6423C93.3684 55.6003 91.9561 57.6762 91.3285 58.794L93.9961 60.3908C94.4669 59.5924 95.4084 58.315 97.1346 57.5166C97.7622 57.1972 99.3315 56.7181 100.116 57.1972C101.215 57.8359 101.058 60.0715 101.058 60.8699C101.215 63.2652 99.9592 64.862 99.1745 65.6604Z" fill="black"/>
<path d="M40.6427 57.5165C37.0335 58.3149 36.7196 63.9038 36.7196 64.3829C36.5627 67.7362 38.2889 70.2912 39.0735 71.5686C40.3288 73.4848 41.898 75.0816 43.938 76.3591C43.938 79.5528 44.7226 83.7045 47.2334 87.8563C51.6272 94.563 58.8456 96.3195 61.984 97.1179C63.3963 97.4373 65.5932 97.9163 68.4178 97.9163C70.144 97.9163 72.027 97.7566 74.2239 97.2776C77.3623 96.6389 83.1685 94.8823 88.5038 89.7725C90.073 88.1756 93.0545 85.4611 94.6237 80.6706C95.4083 78.435 95.7222 76.1994 95.7222 73.8042H92.5837C92.5837 75.8801 92.2699 77.7963 91.6422 79.7125C90.2299 83.7045 87.7192 86.0998 86.3069 87.5369C81.7561 92.008 76.4208 93.6049 73.5962 94.2436C68.7317 95.2017 64.6517 94.563 62.7686 94.0839C59.7871 93.4452 53.6672 91.8484 49.9011 86.0998C47.3903 82.2674 47.0765 78.2753 47.0765 75.5607V74.6026L46.2919 74.1236C44.4088 73.0058 42.8396 71.5686 41.7411 69.9718C40.9565 68.854 39.8581 66.9378 39.8581 64.7023C39.8581 62.6264 40.6427 60.8699 41.2704 60.7102C41.7411 60.5505 42.5257 61.1892 42.9965 61.8279C43.6242 62.6264 43.6242 63.5845 43.4673 63.9039L46.6057 64.2232C46.6057 63.4248 46.6057 61.6683 45.5072 60.0715C44.5657 58.315 42.5257 57.0375 40.6427 57.5165Z" fill="black"/>
<path d="M47.8611 38.195C48.0181 37.7159 48.0181 38.0353 49.2735 35.7997C50.0581 34.3626 50.6857 33.2448 51.1565 32.6061C51.3134 32.2867 51.6273 31.648 51.6273 31.0092C51.7842 30.0511 51.4703 29.2527 51.4703 28.9333C50.215 30.0511 48.4888 31.648 46.7627 34.0432C46.135 34.8416 45.5073 35.7997 45.0366 36.9175C43.9381 39.1531 43.6243 41.3886 43.6243 45.0613C43.6243 47.9356 43.6243 51.6084 44.095 55.9198C44.7227 55.6004 45.3504 55.1214 45.9781 54.802C46.2919 53.5245 46.7627 51.6083 46.9196 49.2131C46.9196 47.4566 46.7627 47.2969 46.7627 45.0613C46.7627 42.0273 46.9196 40.2708 47.8611 38.195Z" fill="black"/>
<path d="M65.1225 39.7917C63.3963 39.4723 61.6702 39.153 59.9441 39.153C57.9041 38.9933 55.8641 39.1529 53.981 39.632L54.4518 42.8257C56.178 42.5063 58.061 42.3466 59.7871 42.5063C61.3564 42.5063 62.9256 42.8257 64.3379 43.145L65.1225 39.7917Z" fill="black"/>
<path d="M84.5808 38.8337C83.0116 38.5143 81.4424 38.3546 79.8732 38.195C78.147 38.0353 76.4209 38.0353 74.8517 38.195L75.0086 41.3886C76.5778 41.2289 78.147 41.2289 79.7162 41.3886C81.1285 41.5483 82.6978 41.708 84.1101 41.8676L84.5808 38.8337Z" fill="black"/>
<path d="M69.2025 69.6526L71.7132 71.5687C73.1255 69.6525 74.067 67.5767 74.3809 65.5008C74.5378 64.2233 74.5378 63.2652 74.2239 60.2312L73.7532 54.4827L70.6147 54.802L71.0855 60.5506C71.3994 63.5846 71.3994 64.2233 71.2424 65.1814C70.9286 66.6185 70.3009 68.2154 69.2025 69.6526Z" fill="black"/>
<path d="M70.6148 82.1078C75.4793 82.1078 78.9316 79.7125 80.3439 78.5947L78.3039 76.1995C77.2055 77.1576 74.067 79.3932 69.8302 79.0738C67.9471 78.9141 66.221 78.2754 64.4948 77.3173L62.7687 80.0319C64.8087 81.3094 67.1625 82.1078 69.5163 82.2674C69.9871 82.1078 70.3009 82.1078 70.6148 82.1078Z" fill="black"/>
<path d="M59.4733 56.5585C60.7733 56.5585 61.8271 55.4861 61.8271 54.1633C61.8271 52.8404 60.7733 51.768 59.4733 51.768C58.1733 51.768 57.1195 52.8404 57.1195 54.1633C57.1195 55.4861 58.1733 56.5585 59.4733 56.5585Z" fill="black"/>
<path d="M80.3439 55.9198C81.6439 55.9198 82.6977 54.8474 82.6977 53.5245C82.6977 52.2017 81.6439 51.1293 80.3439 51.1293C79.0439 51.1293 77.9901 52.2017 77.9901 53.5245C77.9901 54.8474 79.0439 55.9198 80.3439 55.9198Z" fill="black"/>
<path d="M131.5 135.123C130.088 133.206 128.205 131.609 124.91 128.895C120.83 125.542 118.162 123.306 114.239 121.07C111.885 119.633 110.63 119.154 108.59 118.356C106.707 117.557 104.196 116.599 99.3314 114.204C95.0945 112.128 93.0545 111.01 91.3284 108.615C89.6023 106.38 88.8177 104.144 88.5038 102.547C88.033 100.471 87.8761 98.2358 88.3469 96.0002L85.2085 95.3615C84.7377 97.9164 84.8946 100.631 85.3654 103.186C85.8361 105.102 86.7777 107.817 88.8176 110.531C90.5438 112.927 92.5838 114.204 95.7222 115.801C96.9776 117.398 97.9191 118.995 98.7037 120.911C99.3314 122.508 99.8022 124.104 100.116 125.701C99.4883 125.861 98.7037 125.861 98.076 126.021C93.5253 126.979 90.3869 129.214 88.6607 130.492C88.19 130.811 87.8761 130.971 87.5623 131.13C80.187 135.123 68.5748 134.164 64.6517 134.005C57.1195 133.366 52.098 133.047 47.2334 129.374C44.7227 127.458 42.6827 125.063 41.1135 122.188C40.9566 122.029 40.9565 121.869 40.7996 121.709C40.3289 120.911 40.015 119.953 39.5443 118.995C40.015 118.835 40.172 118.675 40.3289 118.675L40.4858 118.515C42.6827 117.398 46.2919 115.482 50.2149 112.128C52.7257 110.052 53.981 108.455 54.9226 106.38C56.021 103.665 56.3349 100.631 55.7072 97.5971L52.5687 98.2358C52.8826 99.9923 53.1964 102.547 51.9411 105.102C51.3134 106.38 50.5288 107.657 48.175 109.733C44.4088 112.927 40.9566 114.683 38.9166 115.801L38.7597 115.961C38.4458 116.12 29.6582 120.751 21.4983 126.18C16.1629 129.693 13.4953 131.929 12.7107 132.727C9.41531 135.602 6.59072 137.997 4.07997 141.989C2.03999 145.183 0.627687 148.855 0 153.007L3.13843 153.486C3.76612 149.813 5.0215 146.62 6.74763 143.745C8.94454 140.232 11.4553 137.997 14.7506 135.123C15.5353 134.484 18.046 132.248 23.2244 128.895C28.2459 125.542 33.4243 122.667 36.7197 120.751C37.0335 121.709 37.5043 122.667 37.9751 123.466C38.4458 127.458 38.9166 131.61 39.2304 135.602C39.5443 140.711 39.7012 145.981 39.5443 151.25H42.6827C42.8396 145.981 42.6827 140.552 42.2119 135.282C42.055 133.206 41.8981 130.971 41.7412 128.895C42.8396 130.013 43.9381 131.13 45.1934 132.089C50.8426 136.4 56.4918 136.719 64.3379 137.358C65.7502 137.518 68.2609 137.677 71.2424 137.677C76.5778 137.677 83.6392 137.039 88.8176 134.164C89.1315 134.005 89.6023 133.685 90.073 133.366C91.7992 132.248 94.6237 130.332 98.5468 129.374C99.1745 129.214 99.8022 129.055 100.43 129.055C100.901 131.45 101.528 133.845 101.842 136.24C102.627 141.031 103.254 145.981 103.568 150.771L106.707 150.612C106.393 145.662 105.765 140.552 104.981 135.602C104.51 132.727 103.882 129.853 103.254 127.138C103.098 124.583 102.47 122.188 101.528 119.793C101.371 119.314 101.214 118.995 100.901 118.515C103.882 119.953 105.765 120.751 107.177 121.23C109.061 122.029 110.159 122.508 112.356 123.785C115.965 125.861 118.633 128.096 122.556 131.29C126.008 134.164 127.577 135.442 128.676 136.879C130.873 140.073 131.971 144.224 131.814 149.015L134.953 149.175C135.266 143.586 134.011 138.795 131.5 135.123Z" fill="black"/>
</svg>
