<svg width="138" height="159" viewBox="0 0 138 159" fill="none" xmlns="http://www.w3.org/2000/svg">
<path d="M30.6492 101.287L32.0638 98.4583C28.1344 96.4157 22.7904 92.6447 19.6469 86.2025C15.246 77.4034 17.4465 68.2901 19.0182 62.4765C19.4897 60.2767 20.7472 55.2486 30.9636 38.9075L32.6925 36.0793C37.8793 27.7516 41.0228 22.8807 44.9522 18.1669C46.8383 15.9671 48.8815 13.7674 50.9248 11.7247L48.7244 9.52496C46.6811 11.7247 44.4806 13.9245 42.5945 16.1243C38.508 20.9952 35.2073 26.0232 30.0205 34.508L28.2916 37.3363C17.7608 54.1488 16.5034 59.3339 15.8747 61.6908C14.303 68.133 11.9453 77.7177 16.8178 87.6166C20.4328 94.8444 26.2483 99.0869 30.6492 101.287Z" fill="black"/>
<path d="M65.6993 3.86843C67.1139 3.55418 70.2574 2.92565 73.7153 4.33979C78.7449 6.38243 80.631 11.2533 81.1025 12.6675L84.0888 11.7247C83.4601 9.99635 81.1025 4.02555 74.9727 1.51154C70.5717 -0.21685 66.6424 0.568766 65.0706 0.883018C60.1982 1.9829 57.0547 4.49693 55.0114 6.53957L57.369 8.73932C58.6264 7.16806 61.4556 4.65406 65.6993 3.86843Z" fill="black"/>
<path d="M97.7631 23.1949C100.592 26.4946 102.793 32.6225 103.893 40.3216C105.308 50.0635 104.364 58.3912 103.736 63.7335V64.2048C103.264 67.6616 102.321 76.932 102.793 86.831C102.95 88.7165 103.107 93.116 106.251 96.1014C107.979 97.8298 110.337 98.7726 113.009 99.0868L113.323 95.9443C111.28 95.6301 109.551 95.0015 108.294 93.7445C105.936 91.5448 105.779 88.088 105.779 86.5168C105.308 76.9321 106.408 67.8188 106.722 64.5191V64.0477C107.351 58.3912 108.294 50.0635 106.879 39.8503C105.622 31.5226 103.421 24.9233 100.121 21.1523C97.1344 17.6955 93.3622 14.8672 88.8041 13.1389L87.7039 16.1242C91.6332 17.6955 95.0911 20.0524 97.7631 23.1949Z" fill="black"/>
<path d="M78.7449 26.6517L77.1731 29.3229C80.0023 31.0513 82.3599 33.0939 84.246 35.765C89.59 43.15 88.9613 51.6348 88.4897 55.0916L91.6332 55.5629C92.2619 51.7919 93.0478 42.3643 86.918 34.0367C84.5604 31.0513 81.8884 28.5372 78.7449 26.6517Z" fill="black"/>
<path d="M104.364 102.386C102.478 102.072 101.221 101.129 100.592 100.501L98.3918 102.701C99.3348 103.643 101.221 105.058 104.05 105.529C104.522 105.529 104.836 105.686 105.308 105.686C106.879 105.686 108.137 105.372 108.923 105.058L107.822 102.072C106.879 102.386 105.779 102.701 104.364 102.386Z" fill="black"/>
<path d="M45.1093 124.856C44.1663 125.327 43.2232 125.955 42.4374 126.584C41.0228 127.684 39.9225 129.098 37.5649 133.497L35.5216 109.614C37.4077 108.043 39.2938 106.629 41.3371 105.215C43.3804 103.801 45.5809 102.701 47.7813 101.601L46.3667 98.7726C44.0091 99.8725 41.6515 101.129 39.451 102.544C37.0934 104.115 34.7358 105.843 32.6925 107.729L32.0638 108.2L32.6925 114.642C29.0774 116.999 25.4624 119.513 22.0046 122.027C13.0456 128.627 9.27335 132.712 6.60137 136.011C4.08656 138.997 2.67198 141.197 1.72893 143.868C0.628702 146.853 0 149.996 0 153.295H3.14351C3.14351 150.467 3.61503 147.639 4.55809 145.125C5.50114 142.768 6.60137 140.882 8.959 138.211C11.631 135.069 15.246 131.298 23.8907 124.856C26.877 122.656 29.8633 120.456 33.0068 118.413L35.2073 144.968L37.7221 139.783C38.508 138.211 39.2938 136.797 39.7654 135.854C42.4374 130.826 43.3804 129.884 44.3235 129.098C44.795 128.627 45.4237 128.312 46.0524 127.841L53.4396 128.312L53.5968 125.17L45.5809 124.698L45.1093 124.856Z" fill="black"/>
<path d="M135.014 144.339C133.913 141.982 132.813 139.782 131.399 137.74C128.884 133.812 124.64 129.569 119.296 125.484C114.109 121.399 109.708 118.885 101.064 114.014C98.3918 112.443 95.5626 111.028 92.7335 109.457C92.5763 108.357 92.262 107.257 91.7904 106C91.0046 103.958 89.9043 102.386 89.2756 101.601C88.0182 99.8724 86.4465 98.4583 84.7175 97.2013L84.4032 96.887L74.9727 96.5728L74.8155 90.2878C76.3872 89.1879 77.959 87.9309 79.6879 86.2025C80.7882 85.1026 81.574 84.1598 82.3599 83.2171C83.7745 81.4887 84.7175 80.3888 86.918 79.2889C87.7039 78.9747 88.1754 78.6604 88.8041 78.5033C89.9043 78.189 91.0046 77.7177 92.5763 76.6178C93.9909 75.675 96.5057 73.9466 98.0775 70.647C98.7062 69.5471 100.278 66.4046 99.1777 62.9478C98.549 60.5909 97.2916 59.1768 95.7198 58.7054C93.5194 58.0769 91.6333 59.4911 90.2187 60.5909C88.4898 61.8479 87.2323 63.5763 86.1321 65.6189L88.9613 67.0331C89.7472 65.4618 90.6902 64.2048 91.9476 63.2621C92.8907 62.6335 93.9909 61.6908 94.6196 62.0051C94.9339 62.1622 95.5626 62.6336 96.0342 64.2048C96.6629 66.5617 95.5626 68.7615 95.0911 69.7042C93.8337 72.2182 91.7904 73.6324 90.6902 74.418C89.4328 75.2036 88.6469 75.5179 87.7039 75.9893C87.0752 76.3035 86.2893 76.4607 85.3462 76.932C82.5171 78.3462 81.2597 79.9174 79.6879 81.803C78.9021 82.7457 78.2733 83.5313 77.1731 84.6312C72.615 89.1879 68.2141 91.0734 65.2278 92.0162C62.8702 92.6447 57.8405 94.0588 52.8109 91.859C47.467 89.5021 45.1093 84.7884 44.6378 83.3742C42.2802 77.8748 42.2802 74.2609 42.2802 74.2609V74.1037C42.2802 73.161 42.2802 71.7469 41.3371 70.3327C40.3941 68.7615 38.9795 67.5045 36.9362 66.7188C37.5649 64.9905 38.1936 63.1049 38.8223 60.9052C40.8656 54.9344 42.2802 51.0062 44.0091 47.5494C46.0524 47.3923 47.9385 47.2352 49.9818 47.2352C52.0251 47.2352 54.0683 47.3923 56.1116 47.5494L56.426 44.4069C54.3827 44.2498 52.1822 44.0927 49.9818 44.0927C48.5672 44.0927 47.1526 44.0927 45.738 44.2498C46.3667 43.1499 46.9954 42.2071 47.6241 41.1073C50.7677 36.5506 53.5968 32.1511 59.2551 29.4799C62.8702 27.7516 66.9567 27.1231 71.3576 27.4373L71.672 24.2948C66.6424 23.8234 62.0843 24.7662 57.8405 26.6517C51.3964 29.6371 48.0957 34.6651 44.9522 39.3789C41.0228 45.1926 39.1367 50.3777 35.836 59.9624C29.8633 77.0891 30.3349 81.9601 30.492 83.8456C30.9636 88.2451 32.3781 92.6446 34.5786 96.887L37.4077 95.3158C35.3645 91.5447 34.1071 87.4595 33.6355 83.5313C33.4784 82.2743 33.164 79.2889 35.9932 69.8614C37.2506 70.3327 38.1936 71.1184 38.6651 71.904C39.1367 72.6896 39.1367 73.4752 39.1367 74.2609V74.418C39.1367 74.5751 39.2939 78.6604 41.8087 84.6312C43.6948 89.0307 47.3098 92.9589 51.7107 94.8444C52.3394 95.1587 52.9681 95.3158 53.4396 95.4729L53.5968 108.357L50.4533 110.243C50.139 108.829 49.8246 107.414 49.8246 106H46.6811C46.6811 108.829 47.1526 111.5 48.2528 114.014C48.5672 114.799 49.8246 117.156 52.0251 119.356C53.5968 120.927 55.4829 122.341 57.369 123.441L57.8405 147.324L60.5125 144.339C62.8702 141.825 64.5991 138.997 65.385 136.011C65.5421 135.383 65.6993 134.754 65.8565 134.126C66.0137 133.34 66.328 132.398 66.6424 131.298C67.1139 129.884 67.5854 128.469 68.2141 127.212C70.2574 126.27 72.3007 125.641 74.5011 125.327C76.2301 125.013 77.959 125.013 79.5308 125.013L90.6902 139.782L91.0046 135.697C91.6333 128.784 92.1048 122.341 92.4191 117.313C92.4191 116.371 92.5763 115.271 92.5763 113.857C94.7768 114.957 96.8201 116.214 98.8633 117.313C107.351 122.027 111.752 124.541 116.781 128.469C121.811 132.398 125.74 136.483 128.098 139.94C129.355 141.825 130.456 143.868 131.399 146.068C133.128 149.839 134.228 153.924 134.856 158.166L138 157.695C138 152.824 136.743 148.582 135.014 144.339ZM63.1845 133.026C63.0273 133.655 62.8702 134.126 62.713 134.754C62.3986 136.011 61.7699 137.111 61.1412 138.368L60.8269 120.927L59.8838 120.456C57.8405 119.513 56.1116 118.256 54.5399 116.685C53.1253 115.271 52.1822 113.857 51.7107 112.914L56.8975 109.929L56.7403 95.9443C57.5262 96.1014 58.3121 96.1014 58.9408 96.1014C62.0843 96.1014 64.7563 95.3158 66.328 94.8444C67.7426 94.373 69.6287 93.7445 71.672 92.6446L71.8292 96.887L71.9863 98.6154L72.3007 107.257L76.3872 111.814C75.287 113.071 74.0296 114.328 72.7722 115.428C72.3007 115.899 71.8292 116.214 71.3576 116.528C69.9431 117.628 68.6856 118.57 67.7426 120.299C66.7995 121.713 66.328 123.441 66.1708 125.327C65.385 126.898 64.7563 128.469 64.2847 130.041C63.4989 131.298 63.3417 132.24 63.1845 133.026ZM89.9043 116.685C89.59 120.77 89.2756 125.641 88.8041 130.983L81.574 121.556H80.7882C80.1595 121.556 79.5308 121.556 78.9021 121.556C77.3303 121.556 75.7585 121.713 74.344 121.87C72.7722 122.184 71.2005 122.499 69.6287 123.127C69.7859 122.656 69.9431 122.341 70.2574 121.87C71.0433 120.613 71.8292 119.985 73.0866 119.042C73.5581 118.728 74.0296 118.256 74.5011 117.942C76.3872 116.371 78.2733 114.485 80.0023 112.443L80.9453 111.343C81.4169 110.871 81.7312 110.4 82.0456 109.929C82.8314 108.829 83.6173 107.729 84.246 106.629L81.574 105.058C80.9453 106.157 80.3166 107.1 79.5308 108.043C79.2164 108.357 78.9021 108.829 78.5877 109.143L75.4442 106L75.1298 100.344L83.4601 100.501C84.7175 101.444 85.8178 102.544 86.918 103.958C87.2323 104.429 88.3326 105.843 88.9613 107.572C90.3759 111.028 90.0615 114.485 89.9043 116.685Z" fill="black"/>
<path d="M80.3166 46.4496C78.4305 46.1354 76.7016 45.8211 74.8155 45.664C73.2437 45.5069 71.672 45.3497 70.2574 45.3497L70.1002 48.4923C71.5148 48.4923 73.0866 48.6494 74.5011 48.8065C76.2301 48.9637 77.959 49.2779 79.6879 49.5922L80.3166 46.4496Z" fill="black"/>
<path d="M51.082 62.1622C52.3841 62.1622 53.4396 61.107 53.4396 59.8053C53.4396 58.5036 52.3841 57.4484 51.082 57.4484C49.7799 57.4484 48.7244 58.5036 48.7244 59.8053C48.7244 61.107 49.7799 62.1622 51.082 62.1622Z" fill="black"/>
<path d="M73.4009 63.8905C74.703 63.8905 75.7585 62.8353 75.7585 61.5336C75.7585 60.232 74.703 59.1768 73.4009 59.1768C72.0988 59.1768 71.0433 60.232 71.0433 61.5336C71.0433 62.8353 72.0988 63.8905 73.4009 63.8905Z" fill="black"/>
<path d="M60.1982 68.133C60.6697 66.7188 60.984 65.3047 61.1412 63.7335L57.9977 63.4192C57.8405 64.6762 57.5262 65.9332 57.2118 67.1902L57.0547 67.8187C56.7403 68.6043 56.426 69.5471 56.426 70.8041C56.426 71.7469 56.5831 72.8468 57.0547 73.7895L60.041 72.6896C59.7266 72.0611 59.7266 71.4326 59.7266 70.8041C59.7266 70.1756 59.8838 69.5471 60.1982 68.9186V68.133Z" fill="black"/>
<path d="M58.9408 83.3742C59.4123 83.3742 59.8838 83.5313 60.3553 83.5313C65.5421 83.5313 68.8428 79.7603 69.1572 79.2889L66.7995 77.2463C66.6424 77.4034 63.8132 80.8602 59.4123 80.3888C57.0547 80.0745 55.3257 78.6604 54.5399 77.8748L52.1822 79.9174C53.2824 81.0173 55.6401 83.06 58.9408 83.3742Z" fill="black"/>
</svg>
