<svg width="179" height="200" viewBox="0 0 179 200" fill="none" xmlns="http://www.w3.org/2000/svg">
<path d="M49.4372 72.3735C45.9157 58.4891 46.9514 48.9566 46.9514 48.9566C48.4015 39.0096 50.0587 28.8554 58.3447 18.9084C70.3594 4.81684 87.1387 2.53733 91.9032 1.91564C105.368 0.257813 116.14 4.19516 121.111 6.47467C122.769 6.26745 125.254 6.06024 128.155 6.26746C132.09 6.47469 134.783 6.6819 137.062 8.54696C139.548 10.6193 140.169 13.3132 140.376 14.5566C140.376 14.9711 140.998 18.0795 139.341 20.9807C137.269 24.7108 132.712 26.7831 127.74 26.5759C128.362 28.8554 129.397 32.3783 130.433 36.5229C132.298 43.7759 132.919 46.6771 133.333 50.4072C133.333 50.6144 133.333 50.6145 133.54 53.9301C133.955 65.5349 133.955 66.9855 132.712 68.4361C130.848 70.9229 127.119 72.3735 125.669 71.3373C124.426 70.5084 125.254 68.2289 125.254 64.706C125.462 61.8048 125.047 57.6602 123.39 52.894C122.976 51.2361 122.354 49.7855 121.94 48.9566C120.904 46.6771 119.454 43.9831 117.383 42.118C116.968 41.9108 115.518 40.4602 114.068 38.3879C114.068 38.3879 113.447 37.559 113.033 36.7301C112.411 35.694 110.132 25.1253 109.925 25.1253C109.718 25.1253 110.961 30.0988 108.268 33.4144C108.061 33.8289 106.611 35.694 104.332 36.1084C100.603 36.7301 97.2891 33 96.4605 32.3783C94.5961 30.306 94.1818 28.441 93.3532 28.441C92.5246 28.6482 93.3532 31.3422 91.696 34.6578C91.2817 35.4867 89.8316 38.5952 87.3458 39.4241C83.6171 40.6675 79.4741 36.9373 77.6097 35.2795C74.2953 32.3783 73.4667 30.0988 72.2238 30.5132C70.5666 30.9277 71.3952 35.0723 68.2879 39.4241C66.4236 42.1181 65.3878 41.4964 63.3163 44.1903C60.6234 47.7132 60.2091 51.6506 59.7948 55.5879C59.5876 57.8674 59.5876 61.1831 59.3804 68.0217C59.3804 71.5446 59.3805 74.4457 57.7233 75.0674C56.2732 75.6891 54.616 74.4458 53.1659 75.4819C52.3373 76.1036 52.3373 77.1397 51.7159 77.1397C50.6801 77.3469 49.4372 72.5807 49.4372 72.3735Z" fill="#231F20"/>
<path d="M4.4856 199.198C4.8999 194.846 6.1428 187.8 10.7001 181.169C13.6002 177.024 16.9147 174.537 25.615 168.528C31.6224 164.59 39.4941 159.41 49.6445 153.814C50.6802 155.265 52.1303 157.544 52.9589 160.653C54.2018 164.798 53.9947 168.113 53.9947 169.564C53.7875 174.744 53.9947 182.619 55.0304 195.675C38.2512 197.125 21.2648 198.161 4.4856 199.198Z" fill="#231F20"/>
<path d="M130.641 150.706C132.505 156.094 134.369 162.311 135.819 168.942C138.098 178.889 138.927 187.8 139.341 195.675C151.563 194.846 163.577 194.224 175.799 193.395C176.628 184.691 174.142 179.511 172.485 177.024C169.792 172.672 165.442 169.564 156.949 163.14C155.084 161.896 154.049 161.067 152.598 160.031C148.248 157.13 141.205 153.193 130.641 150.706Z" fill="#231F20"/>
<path d="M138.305 195.882C138.305 188.422 137.476 179.925 135.198 171.014C134.783 169.149 134.162 167.284 133.541 165.626C131.469 165.626 128.569 166.041 125.255 167.491C121.94 168.942 120.076 170.6 119.247 171.222C113.861 175.573 104.747 175.988 97.2891 176.402C83.41 177.231 73.0525 177.853 63.3164 171.429C58.3448 168.113 55.2375 164.176 53.3732 161.482C53.7875 169.978 54.4089 178.475 55.2375 187.178C55.4447 190.079 55.6518 192.981 56.0661 196.089C71.1881 195.675 86.9316 195.467 102.675 195.467C115.104 195.467 126.705 195.675 138.305 195.882Z" fill="#D1D3D4"/>
<path d="M51.9232 77.1397C49.6445 70.0939 45.2943 53.1012 52.1303 34.865C53.7875 30.306 56.8948 22.6385 64.3522 15.8C75.3312 6.06019 88.1746 4.81682 92.939 4.40236C101.432 3.57344 110.133 5.02405 118.211 8.13249L119.661 4.19515C110.961 0.672258 101.639 -0.571134 92.5247 0.257782C87.3459 0.672239 73.4668 1.91561 61.4521 12.6915C52.9589 20.359 49.6445 29.0626 47.9873 33.2072C40.5299 53.7229 47.1587 72.7879 49.6445 79.0048C50.6802 78.3831 51.3017 77.7614 51.9232 77.1397Z" fill="black"/>
<path d="M133.126 22.6385C127.947 25.5397 122.354 25.5397 118.419 25.1252L117.797 29.2698C119.04 29.477 120.49 29.477 122.147 29.477C126.083 29.477 130.64 28.6481 134.991 26.1614C137.684 24.7108 142.241 22.0168 143.07 16.8361C143.277 16.2144 143.691 12.277 141.205 9.16859C139.341 6.68184 136.855 6.06016 133.748 5.02401C131.055 4.1951 128.362 3.78064 125.462 3.98787V8.13245C127.948 8.13245 130.433 8.33967 132.712 9.16859C135.819 9.99751 137.062 10.412 138.098 11.8626C139.548 13.7276 139.134 16.2144 139.134 16.4216C138.719 19.53 135.198 21.3951 133.126 22.6385Z" fill="black"/>
<path d="M135.612 60.9758C135.612 57.0385 135.405 52.2722 134.576 47.0915C133.126 38.8023 130.433 32.171 128.155 27.1975C127.326 27.612 126.705 27.8192 125.876 28.2337C128.362 36.1084 129.605 42.7397 130.433 47.7132C131.676 54.5517 132.091 58.0746 132.298 62.012C132.298 65.1204 132.091 67.6071 132.712 67.8144C133.333 67.6071 134.576 64.0843 135.612 60.9758Z" fill="black"/>
<path d="M105.989 34.865C105.575 35.0723 104.332 35.694 101.225 34.0361C98.9463 33 97.7034 31.3422 96.6676 30.0988C95.6319 28.8554 94.1818 27.1976 92.3175 27.8193C90.6603 28.441 90.4531 30.0988 90.4531 31.1349C90.4531 31.9639 90.246 33 89.8317 34.2434C89.4174 35.0723 88.7959 36.9374 87.553 37.7663C85.6887 38.8024 82.7886 37.7663 80.5099 36.3157C76.9883 34.2434 75.5383 30.5132 75.124 28.6482L71.1881 29.6843C71.8096 32.1711 73.6739 36.9374 78.4384 39.8386C79.8884 40.6675 82.7885 42.3253 85.8958 42.3253C87.1387 42.3253 88.5888 42.1181 89.8317 41.2892C92.3175 39.8385 93.5604 36.9373 93.9747 35.9012C94.1819 35.0723 94.389 34.4506 94.5961 33.8289C95.839 35.2795 97.4962 36.9373 99.7749 37.9735C104.332 40.253 107.232 39.4241 108.682 38.388C111.168 36.7301 111.583 33.6217 111.79 31.5494C111.997 29.0627 111.79 26.5759 110.754 24.2964L106.818 25.747C107.44 27.612 107.647 29.2699 107.44 31.1349C107.025 32.3783 106.818 34.2434 105.989 34.865Z" fill="black"/>
<path d="M127.326 65.1204C127.533 62.012 127.326 55.1734 123.39 48.1276C120.904 43.5686 117.59 40.4602 115.518 38.8024C115.518 40.4602 115.726 41.9108 115.726 43.5686C116.969 45.2265 118.419 47.506 119.661 49.9927C122.562 56.0024 122.976 61.3903 123.183 64.9132C122.976 66.3638 123.804 67.4 124.84 67.6072C126.083 68.0217 127.326 66.7783 127.326 65.1204Z" fill="black"/>
<path d="M131.262 85.2217C129.812 86.6723 128.155 87.5012 127.119 87.9156L128.362 91.853C130.64 91.024 132.712 89.7807 134.369 88.1229C135.612 86.6723 137.891 83.5638 138.098 79.212C138.098 77.5542 138.305 72.9951 134.783 70.9228C131.883 69.0578 128.362 70.5084 127.119 70.9228C123.597 72.1662 121.733 74.8602 120.904 76.3108L124.426 78.3831C125.047 77.3469 126.29 75.6891 128.569 74.653C129.397 74.2385 131.469 73.6168 132.505 74.2385C133.955 75.0674 133.748 77.9687 133.748 79.0048C133.955 82.1132 132.298 84.1855 131.262 85.2217Z" fill="black"/>
<path d="M53.9946 74.653C49.2301 75.6891 48.8158 82.9421 48.8158 83.5638C48.6087 87.9156 50.8874 91.2312 51.9231 92.8891C53.5803 95.3758 55.6518 97.4481 58.3448 99.1059C58.3448 103.251 59.3805 108.639 62.6949 114.026C68.4952 122.73 78.0241 125.01 82.1671 126.046C84.0315 126.46 86.9316 127.082 90.6603 127.082C92.939 127.082 95.4248 126.875 98.3249 126.253C102.468 125.424 110.132 123.144 117.176 116.513C119.247 114.441 123.183 110.918 125.254 104.701C126.29 101.8 126.705 98.8987 126.705 95.7903H122.562C122.562 98.4842 122.147 100.971 121.319 103.458C119.454 108.638 116.14 111.747 114.275 113.612C108.268 119.414 101.225 121.487 97.4963 122.316C91.0746 123.559 85.6887 122.73 83.2029 122.108C79.267 121.279 71.1881 119.207 66.2165 111.747C62.9021 106.773 62.4878 101.593 62.4878 98.0698V96.8264L61.452 96.2048C58.9662 94.7541 56.8947 92.8891 55.4447 90.8168C54.4089 89.3662 52.9589 86.8795 52.9589 83.9783C52.9589 81.2843 53.9946 79.0048 54.8232 78.7975C55.4447 78.5903 56.4804 79.4192 57.1019 80.2481C57.9305 81.2842 57.9305 82.5277 57.7233 82.9421L61.8664 83.3565C61.8664 82.3204 61.8663 80.0409 60.4163 77.9686C59.1734 75.6891 56.4804 74.0313 53.9946 74.653Z" fill="black"/>
<path d="M63.5235 49.5782C63.7306 48.9566 63.7307 49.371 65.3879 46.4698C66.4236 44.6047 67.2522 43.1541 67.8737 42.3252C68.0808 41.9108 68.4951 41.0819 68.4951 40.2529C68.7023 39.0096 68.288 37.9734 68.288 37.559C66.6308 39.0096 64.3521 41.0818 62.0734 44.1903C61.2448 45.2264 60.4162 46.4698 59.7948 47.9204C58.3447 50.8216 57.9304 53.7228 57.9304 58.4891C57.9304 62.2192 57.9304 66.9855 58.5519 72.5807C59.3805 72.1662 60.2091 71.5445 61.0377 71.13C61.452 69.4722 62.0734 66.9855 62.2806 63.877C62.2806 61.5975 62.0734 61.3903 62.0734 58.4891C62.0734 54.5517 62.2806 52.2722 63.5235 49.5782Z" fill="black"/>
<path d="M86.3101 51.6505C84.0314 51.2361 81.7528 50.8216 79.4742 50.8216C76.7812 50.6144 74.0882 50.8216 71.6024 51.4433L72.2239 55.5879C74.5025 55.1734 76.9883 54.9662 79.267 55.1734C81.3385 55.1734 83.41 55.5879 85.2744 56.0023L86.3101 51.6505Z" fill="black"/>
<path d="M111.997 50.4072C109.925 49.9927 107.854 49.7855 105.782 49.5783C103.504 49.371 101.225 49.371 99.1536 49.5783L99.3607 53.7229C101.432 53.5156 103.504 53.5156 105.575 53.7229C107.44 53.9301 109.511 54.1373 111.375 54.3445L111.997 50.4072Z" fill="black"/>
<path d="M91.696 90.4024L95.0105 92.8892C96.8748 90.4024 98.1177 87.7085 98.532 85.0145C98.7392 83.3566 98.7392 82.1132 98.3249 78.1759L97.7034 70.7157L93.5604 71.1301L94.1818 78.5904C94.5962 82.5277 94.5962 83.3566 94.389 84.6C93.9747 86.4651 93.1461 88.5374 91.696 90.4024Z" fill="black"/>
<path d="M93.5604 106.566C99.9821 106.566 104.539 103.458 106.404 102.007L103.711 98.8987C102.261 100.142 98.1177 103.043 92.5247 102.629C90.0389 102.422 87.7602 101.593 85.4816 100.349L83.2029 103.872C85.8958 105.53 89.0031 106.566 92.1104 106.773C92.7318 106.566 93.1461 106.566 93.5604 106.566Z" fill="black"/>
<path d="M78.8527 73.4096C80.5688 73.4096 81.96 72.0179 81.96 70.3012C81.96 68.5844 80.5688 67.1927 78.8527 67.1927C77.1367 67.1927 75.7455 68.5844 75.7455 70.3012C75.7455 72.0179 77.1367 73.4096 78.8527 73.4096Z" fill="black"/>
<path d="M106.404 72.5808C108.12 72.5808 109.511 71.1891 109.511 69.4723C109.511 67.7556 108.12 66.3639 106.404 66.3639C104.688 66.3639 103.297 67.7556 103.297 69.4723C103.297 71.1891 104.688 72.5808 106.404 72.5808Z" fill="black"/>
<path d="M173.935 175.366C172.071 172.88 169.585 170.807 165.235 167.284C159.849 162.932 156.327 160.031 151.148 157.13C148.041 155.265 146.384 154.643 143.691 153.607C141.205 152.571 137.891 151.328 131.469 148.219C125.876 145.525 123.183 144.075 120.904 140.966C118.626 138.065 117.59 135.164 117.176 133.092C116.554 130.398 116.347 127.496 116.968 124.595L112.825 123.766C112.204 127.082 112.411 130.605 113.033 133.921C113.654 136.407 114.897 139.93 117.59 143.453C119.869 146.561 122.562 148.219 126.705 150.292C128.362 152.364 129.605 154.436 130.64 156.923C131.469 158.995 132.09 161.067 132.505 163.14C131.676 163.347 130.64 163.347 129.812 163.554C123.804 164.798 119.661 167.699 117.383 169.357C116.761 169.771 116.347 169.978 115.933 170.186C106.197 175.366 90.8675 174.123 85.6887 173.916C75.7455 173.087 69.1166 172.672 62.6949 167.906C59.3805 165.419 56.6876 162.311 54.6161 158.581C54.4089 158.374 54.4089 158.166 54.2017 157.959C53.5803 156.923 53.166 155.68 52.5446 154.436C53.166 154.229 53.3732 154.022 53.5803 154.022L53.7875 153.814C56.6876 152.364 61.452 149.877 66.6308 145.525C69.9452 142.831 71.6024 140.759 72.8453 138.065C74.2954 134.542 74.7097 130.605 73.8811 126.667L69.7381 127.496C70.1524 129.776 70.5667 133.092 68.9095 136.407C68.0809 138.065 67.0451 139.723 63.9379 142.417C58.9662 146.561 54.4089 148.841 51.7159 150.292L51.5088 150.499C51.0945 150.706 39.4941 156.716 28.7222 163.761C21.6791 168.32 18.1575 171.222 17.1218 172.258C12.7716 175.988 9.04288 179.096 5.72846 184.277C3.0355 188.422 1.17113 193.188 0.342529 198.576L4.48555 199.198C5.31415 194.431 6.97136 190.287 9.25002 186.557C12.1501 181.998 15.4646 179.096 19.8147 175.366C20.8505 174.537 24.1649 171.636 31.0009 167.284C37.6297 162.932 44.4657 159.202 48.8158 156.716C49.2301 157.959 49.8516 159.202 50.4731 160.239C51.0945 165.419 51.7159 170.807 52.1302 175.988C52.5445 182.619 52.7517 189.458 52.5446 196.296H56.6876C56.8947 189.458 56.6876 182.412 56.0661 175.573C55.859 172.879 55.6518 169.978 55.4447 167.284C56.8947 168.735 58.3448 170.186 60.002 171.429C67.4594 177.024 74.9168 177.439 85.2744 178.267C87.1387 178.475 90.4532 178.682 94.389 178.682C101.432 178.682 110.754 177.853 117.59 174.123C118.004 173.916 118.626 173.501 119.247 173.087C121.526 171.636 125.254 169.149 130.433 167.906C131.262 167.699 132.09 167.492 132.919 167.492C133.541 170.6 134.369 173.708 134.783 176.817C135.819 183.034 136.648 189.458 137.062 195.675L141.205 195.467C140.791 189.043 139.962 182.412 138.926 175.988C138.305 172.258 137.476 168.528 136.648 165.005C136.441 161.689 135.612 158.581 134.369 155.472C134.162 154.851 133.955 154.436 133.541 153.814C137.476 155.679 139.962 156.716 141.827 157.337C144.312 158.373 145.762 158.995 148.663 160.653C153.427 163.347 156.949 166.248 162.127 170.393C166.685 174.123 168.756 175.781 170.206 177.646C173.106 181.79 174.556 187.178 174.349 193.395L178.492 193.602C178.907 186.349 177.249 180.133 173.935 175.366Z" fill="black"/>
</svg>
