<svg width="177" height="201" viewBox="0 0 177 201" fill="none" xmlns="http://www.w3.org/2000/svg">
<path d="M70.3173 5.80243C63.2742 8.70363 58.9241 13.0554 56.2311 15.7494C54.9882 16.9928 41.3162 31.2916 41.7305 51.1856C41.9377 55.5374 42.7662 63.2048 45.0449 63.6193C46.7021 63.8265 48.3593 60.9253 49.6022 58.6458C53.331 51.8072 51.6738 49.3205 54.781 42.8964C56.0239 40.6169 58.7169 35.4362 64.1028 33.1566C65.76 32.535 67.0029 32.3277 68.0387 32.3277C68.453 35.4362 69.6959 40.8241 73.6318 45.7976C77.1533 50.1494 81.2963 52.0145 87.0966 54.7085C96.8326 59.0603 97.4541 56.5735 106.362 60.9253C110.505 62.9976 114.026 65.2771 120.448 66.7277C122.727 67.1422 124.798 67.3494 126.248 67.5566C127.905 62.9976 130.598 53.8795 128.941 43.1036C126.248 25.9036 113.405 8.4964 95.1754 4.14459C82.5392 0.828931 71.7674 5.18074 70.3173 5.80243Z" fill="#6D5A55"/>
<path d="M120.655 142.159C127.698 144.439 136.398 150.241 143.442 154.8C143.649 155.007 144.892 155.836 146.756 156.872C147.792 157.701 149.449 158.737 152.142 160.395C157.321 163.711 159.185 164.954 161.878 167.234C165.192 170.135 167.264 172.414 167.885 173.036C172.028 177.802 173.271 182.776 173.478 184.019C174.1 186.092 174.721 189.407 174.514 193.345C170.164 193.759 163.328 194.173 158.771 194.588C117.341 197.696 96.6255 199.147 91.6539 199.354C72.1817 200.39 54.1596 200.39 18.3225 200.598C11.6937 200.598 6.30773 200.598 2.57902 200.598C2.37186 197.696 2.16473 192.93 3.82193 187.335C5.47914 181.947 7.75781 178.424 10.2436 175.108C14.8009 168.892 19.3582 165.161 20.1868 164.333C24.537 160.81 26.1942 160.602 30.5444 158.53C32.823 157.494 34.4802 156.458 37.7947 154.386C46.2878 149.205 47.1164 146.718 53.331 144.024C53.5381 144.024 56.024 142.781 59.1312 141.952C63.2743 140.708 71.5603 139.051 83.1607 141.745C85.0251 146.511 86.8894 151.277 88.5466 156.043C90.8253 151.692 93.104 147.34 95.3826 142.988C108.226 139.051 116.512 140.916 120.655 142.159Z" fill="#323942"/>
<path d="M93.7253 141.123C97.6612 135.942 101.597 130.761 105.326 125.373C106.983 126.202 109.676 127.653 111.54 130.761C112.99 133.041 113.819 135.942 113.198 142.573C112.783 147.133 111.54 153.971 108.019 161.846C108.226 160.602 108.847 152.106 102.633 145.682C99.3185 142.573 95.5897 141.537 93.7253 141.123Z" fill="#808285"/>
<path d="M84.6107 140.708C81.9177 138.843 79.0176 136.978 76.1175 134.906C73.2174 132.834 70.5244 130.554 67.8315 128.482C66.5886 129.104 64.9314 130.14 63.067 131.798C62.2384 132.627 60.5812 134.284 59.7526 136.978C59.3383 138.429 59.1312 140.087 59.1312 142.781C59.3383 144.439 59.7526 149.412 63.2742 156.665C64.3099 158.737 65.9671 161.639 68.2458 164.954C68.6601 161.639 70.1102 154.593 75.7032 148.169C78.8105 144.439 82.1249 142.159 84.6107 140.708Z" fill="#808285"/>
<path d="M132.463 79.5759C133.291 77.0892 134.12 74.188 132.877 70.8723C132.255 69.2145 131.012 67.9711 129.977 66.9349C130.598 65.6916 130.805 64.6554 130.805 64.0337C132.048 56.3663 132.463 53.0506 132.463 51.1855C132.463 46.8337 132.463 41.653 130.598 35.6434C127.698 25.6964 121.069 19.4795 117.133 15.7494C111.54 10.3614 99.3184 -1.24337 82.5392 8.63524e-07C77.1533 0.414459 71.9745 2.07229 67.0029 4.9735L69.0744 8.49639C73.4245 6.00964 77.9819 4.55904 82.7463 4.14458C97.6612 3.10843 108.847 13.8843 114.233 18.8578C118.169 22.588 123.969 27.9759 126.662 37.094C128.32 42.4819 128.32 47.4554 128.32 51.3928C128.32 52.8434 127.698 56.5735 126.662 63.4121C126.455 64.0337 126.455 65.2771 125.627 66.3133C125.005 66.9349 124.591 67.1422 123.762 67.5566C123.348 67.7639 123.141 67.9711 122.726 68.1783C120.241 69.6289 118.583 72.3229 117.548 76.053L121.484 77.0892C122.312 74.3952 123.348 72.7373 124.798 71.7012C125.005 71.494 125.212 71.494 125.419 71.2868C125.834 71.0795 126.455 70.6651 127.077 70.2506C127.698 70.8723 128.32 71.494 128.734 72.5301C129.562 74.3952 128.941 76.053 128.112 78.3325C127.491 80.4048 126.662 82.6843 124.591 84.3422C122.519 85.7928 120.448 86.2072 118.791 86.2072V90.3518C120.862 90.3518 124.177 89.9374 127.077 87.6578C130.598 85.1711 131.634 82.0627 132.463 79.5759Z" fill="black"/>
<path d="M45.2521 62.9976C42.9734 56.988 42.1448 50.5639 42.9734 44.5542C44.0091 37.094 46.9093 31.9133 48.7737 28.3904C51.8809 22.7952 56.2311 17.8217 61.2027 13.6771L58.7169 10.3615C53.3309 14.9205 48.7736 20.1012 45.2521 26.3181C43.1806 29.841 39.8661 35.6434 38.8304 43.9325C38.0018 50.7711 38.8304 57.8169 41.3162 64.4482L45.2521 62.9976Z" fill="black"/>
<path d="M59.9598 33.3638C57.2668 36.4723 54.9882 40.2024 53.3309 43.9325C51.4666 48.0771 50.2237 52.4289 49.6023 56.7807C49.188 59.2674 49.1879 61.7542 49.1879 64.0337L53.3309 63.8265C53.3309 61.547 53.331 59.2674 53.7453 57.1952C54.3667 53.0506 55.4025 49.1132 57.0597 45.3831C58.7169 41.8602 60.5812 38.7518 63.0671 35.8506L59.9598 33.3638Z" fill="black"/>
<path d="M75.0818 44.347C72.8031 40.8241 72.1817 37.3012 71.7674 35.0217L67.6244 35.4361C68.0387 39.3735 69.2816 43.3108 71.5602 46.6265C74.6675 51.3928 78.8105 54.0867 81.7106 55.5373L83.575 51.8072C81.0892 50.5638 77.7747 48.2843 75.0818 44.347Z" fill="black"/>
<path d="M82.9536 34.4L79.0177 36.0579C81.0892 41.2386 85.2322 48.9061 93.1039 55.3301C101.597 62.3759 110.712 65.0699 116.719 66.106L117.341 61.9615C111.748 61.1326 103.461 58.6458 95.5898 52.0145C88.7538 46.0048 85.0251 39.1663 82.9536 34.4Z" fill="black"/>
<path d="M60.3741 60.5109C61.4098 60.5109 62.2384 60.5109 63.2742 60.5109C64.3099 60.5109 65.1385 60.5109 66.1743 60.5109C68.4529 60.3036 70.7316 59.8892 73.0102 59.4747L71.9745 55.5374C69.903 55.9518 67.8315 56.3663 65.76 56.5735C64.1027 56.7807 62.2384 56.7807 60.5812 56.5735L60.3741 60.5109Z" fill="black"/>
<path d="M72.1817 77.9181C74.0122 77.9181 75.4961 76.4336 75.4961 74.6024C75.4961 72.7712 74.0122 71.2867 72.1817 71.2867C70.3512 71.2867 68.8672 72.7712 68.8672 74.6024C68.8672 76.4336 70.3512 77.9181 72.1817 77.9181Z" fill="black"/>
<path d="M101.39 77.9181C103.22 77.9181 104.704 76.4336 104.704 74.6024C104.704 72.7712 103.22 71.2867 101.39 71.2867C99.5594 71.2867 98.0755 72.7712 98.0755 74.6024C98.0755 76.4336 99.5594 77.9181 101.39 77.9181Z" fill="black"/>
<path d="M48.9808 89.3157C48.3594 88.9012 45.4592 86.6217 44.8378 82.4771C44.4235 79.1614 45.2521 75.6386 46.495 75.0169C46.9093 74.8096 47.7379 75.0169 48.5665 75.4313C50.0165 76.053 50.638 77.2964 50.8452 77.7108L54.5738 76.053C54.1595 75.0169 52.9167 72.7373 50.0166 71.7012C49.3951 71.494 47.1164 70.4578 44.8378 71.2867C40.4876 72.9446 39.8662 79.3687 40.4876 83.306C41.3162 88.9012 45.4592 92.2169 46.2878 92.8386C49.6022 95.3253 53.1238 95.7398 55.1953 95.7398C55.8168 95.7398 56.231 95.7398 56.4382 95.7398L56.0239 91.5952C54.9882 91.388 51.8809 91.3879 48.9808 89.3157Z" fill="black"/>
<path d="M91.4468 90.7663C92.2754 89.9373 92.4825 88.9012 92.2753 87.8651C92.0682 86.8289 91.2396 86 90.2038 86C89.7895 87.0361 89.3752 87.4506 88.9609 87.6578C88.5466 87.8651 88.3395 87.8651 88.3395 88.0723C88.3395 88.0723 88.3395 88.2795 88.1323 88.694C87.9252 89.1084 87.5109 89.5229 86.6823 89.9374C86.8894 90.9735 87.718 91.5952 88.7538 91.8024C89.5824 91.8024 90.6182 91.5952 91.4468 90.7663Z" fill="black"/>
<path d="M80.4677 102.786C81.7106 103.822 84.6108 105.48 88.3395 105.48H88.5466C94.3468 105.48 97.8684 101.749 98.9041 100.713L95.7969 98.0193C95.3826 98.641 92.6896 101.542 88.5466 101.542C88.5466 101.542 88.5466 101.542 88.3395 101.542C85.6465 101.542 83.7821 100.299 82.7464 99.6771L80.4677 102.786Z" fill="black"/>
<path d="M110.09 109.417C112.783 106.308 114.648 102.578 115.89 98.641L111.955 97.3976C110.919 100.92 109.262 104.029 106.983 106.723C105.533 108.381 98.0755 116.67 86.0608 116.67C85.8536 116.67 85.8536 116.67 85.6465 116.67C75.9104 116.463 66.7957 110.867 61.8241 101.957L58.0954 104.029C60.7884 108.795 64.5171 112.733 68.8672 115.634L68.6601 127.239L68.0386 126.824L66.7957 127.446C64.7242 128.482 63.067 129.725 61.617 131.176C60.7883 132.005 58.924 134.077 57.8883 137.186C57.2668 139.051 57.0597 141.123 57.2668 143.61C57.6811 147.961 59.1311 153.142 61.617 158.116C63.067 161.017 64.7242 163.918 66.7957 166.612L69.903 170.757L70.5245 165.576C71.1459 161.431 72.8031 155.422 77.5676 149.827C79.2248 147.754 81.2963 146.096 83.3678 144.439L88.9609 174.487L95.3826 144.024C97.2469 144.646 99.5256 145.889 101.39 147.754C106.776 153.142 106.362 160.602 106.154 162.053L104.704 175.316L110.09 163.089C112.99 156.665 114.648 149.826 115.476 143.195C116.098 136.978 115.476 133.041 113.612 129.933C112.162 127.446 109.883 125.581 107.19 124.13L106.154 112.94C108.226 111.696 109.676 110.039 110.09 109.417ZM74.2532 147.34C70.5245 151.692 68.6601 156.251 67.4172 160.188C66.5886 158.945 65.9672 157.701 65.3457 156.251C63.067 151.692 61.8242 147.133 61.4099 143.195C61.2027 140.501 61.4098 139.258 61.8241 138.222C62.6527 135.942 64.1028 134.284 64.7242 133.663C65.5528 132.834 66.5886 132.005 67.6244 131.383C69.903 133.248 72.3888 135.113 74.8747 136.978C76.739 138.429 78.8105 139.88 80.6749 141.123C78.3962 143.195 76.1175 145.06 74.2532 147.34ZM109.883 132.626C110.919 134.284 111.748 136.771 111.126 143.195C110.712 146.718 110.09 150.034 109.055 153.557C108.226 150.863 106.569 147.754 104.083 145.267C101.804 142.988 99.3184 141.537 97.0398 140.708L105.947 128.896C107.604 129.725 109.055 131.176 109.883 132.626ZM102.84 125.995C99.1113 131.176 95.3825 136.357 91.6538 141.33C91.4467 141.952 91.2395 142.573 91.0324 143.195L88.9609 153.349L86.8894 142.366C86.4751 141.537 86.0608 140.501 85.4393 139.672C82.5392 137.807 79.8462 135.942 77.1533 133.87C75.7032 132.834 74.2532 131.59 72.8031 130.554L73.0102 117.913C76.9461 119.778 81.0891 120.814 85.4393 120.814C85.6464 120.814 85.6465 120.814 85.8536 120.814C92.4825 120.814 97.8683 118.535 102.011 116.048L102.84 125.995Z" fill="black"/>
<path d="M36.966 153.764C35.516 154.593 34.2731 155.214 34.2731 155.214C32.4087 156.251 30.7515 157.08 29.3015 157.701C25.7799 159.359 23.0869 160.602 19.151 163.711C16.4581 165.783 12.5222 169.513 8.79349 174.901C6.72198 177.802 4.02906 181.74 2.1647 187.749C0.921794 191.894 0.300303 196.453 0.507454 200.805L4.65047 200.598C4.44332 196.66 5.0648 192.723 6.10055 188.786C7.75776 183.398 10.2436 179.875 12.1079 177.181C15.6295 172.207 19.3582 168.892 21.6369 166.819C25.1584 163.918 27.6442 162.882 30.9587 161.224C32.4087 160.602 34.0659 159.773 36.1374 158.737C36.1374 158.737 37.5875 157.908 39.0375 157.08C41.9376 155.422 49.1879 150.655 58.5097 144.231C58.5097 142.781 58.5097 141.33 58.5097 140.087C53.1238 142.781 49.1879 145.475 46.495 147.34C45.6664 147.961 41.109 151.277 36.966 153.764Z" fill="black"/>
<path d="M169.335 172.622C167.057 169.928 164.157 167.441 163.121 166.405C160.635 164.333 158.771 163.089 154.835 160.602L153.178 159.566C151.935 158.737 150.692 157.908 149.449 157.08C149.449 157.08 146.756 155.215 144.684 153.971C141.577 151.899 130.391 145.06 115.062 135.735C114.648 137.393 114.233 138.843 113.819 140.501C116.098 141.745 137.434 154.386 142.406 157.494C144.477 158.737 147.17 160.602 147.17 160.602C148.413 161.431 149.656 162.26 150.899 163.089L152.556 164.125C156.492 166.819 158.149 167.855 160.428 169.721C161.257 170.342 164.157 172.829 166.228 175.316C168.921 178.424 172.236 184.227 173.064 193.552L177.207 193.137C176.171 182.776 172.235 176.352 169.335 172.622Z" fill="black"/>
</svg>
