<svg width="140" height="160" viewBox="0 0 140 160" fill="none" xmlns="http://www.w3.org/2000/svg">
<path d="M104.557 63.0641C105.213 61.0956 105.869 58.7991 104.885 56.1745C104.392 54.8621 103.408 53.8779 102.587 53.0577C103.08 52.0735 103.244 51.2533 103.244 50.7612C104.228 44.6918 104.557 42.0671 104.557 40.5908C104.557 37.146 104.557 33.045 103.08 28.2879C100.782 20.414 95.5316 15.4929 92.4139 12.5402C87.9834 8.27518 78.3021 -0.910987 65.0108 0.0732452C60.7445 0.401322 56.6422 1.71363 52.704 4.01017L54.3449 6.79883C57.7908 4.83037 61.4008 3.6821 65.1749 3.35402C76.9894 2.53382 85.8503 11.0638 90.1166 15.0008C93.2343 17.9535 97.8288 22.2185 99.962 29.4362C101.275 33.7012 101.275 37.6381 101.275 40.7548C101.275 41.9031 100.782 44.8558 99.962 50.2691C99.7979 50.7612 99.7979 51.7454 99.1416 52.5656C98.6493 53.0577 98.3211 53.2218 97.6647 53.5498C97.3365 53.7139 97.1725 53.8779 96.8443 54.042C94.8752 55.1902 93.5625 57.3227 92.742 60.2754L95.8598 61.0956C96.5161 58.9631 97.3365 57.6508 98.4852 56.8306C98.6493 56.6666 98.8134 56.6666 98.9775 56.5025C99.3057 56.3385 99.7979 56.0104 100.29 55.6823C100.782 56.1745 101.275 56.6666 101.603 57.4868C102.259 58.9631 101.767 60.2754 101.111 62.0798C100.618 63.7202 99.962 65.5247 98.3211 66.837C96.6802 67.9852 95.0393 68.3133 93.7266 68.3133V71.5941C95.3675 71.5941 97.9929 71.266 100.29 69.4616C103.08 67.4931 103.9 65.0325 104.557 63.0641Z" fill="black"/>
<path d="M35.4746 49.941C33.6696 45.1839 33.0132 40.0987 33.6696 35.3416C34.49 29.4362 36.7873 25.3352 38.2641 22.5466C40.7255 18.1175 44.1714 14.1806 48.1095 10.8998L46.1404 8.27521C41.8741 11.8841 38.2641 15.985 35.4746 20.9062C33.8337 23.6948 31.2082 28.2879 30.3878 34.8495C29.7314 40.2627 30.3878 45.8401 32.3569 51.0893L35.4746 49.941Z" fill="black"/>
<path d="M47.125 26.4835C44.9918 28.944 43.1868 31.8967 41.8741 34.8494C40.3972 38.1302 39.4127 41.575 38.9205 45.0198C38.5923 46.9883 38.5923 48.9568 38.5923 50.7612L41.8741 50.5971C41.8741 48.7927 41.8741 46.9883 42.2023 45.3479C42.6945 42.0671 43.515 38.9504 44.8277 35.9977C46.1404 33.209 47.6172 30.7485 49.5863 28.4519L47.125 26.4835Z" fill="black"/>
<path d="M59.1036 35.1775C57.2986 32.3889 56.8063 29.6002 56.4782 27.7958L53.1964 28.1239C53.5245 31.2406 54.5091 34.3573 56.3141 36.9819C58.7754 40.7548 62.0572 42.8873 64.3545 44.0356L65.8313 41.0829C63.8622 40.0987 61.2367 38.2942 59.1036 35.1775Z" fill="black"/>
<path d="M65.339 27.3037L62.2213 28.616C63.8622 32.717 67.144 38.7864 73.3794 43.8716C80.1071 49.4489 87.327 51.5814 92.0857 52.4016L92.578 49.1208C88.1475 48.4647 81.5839 46.4962 75.3485 41.247C69.9335 36.4899 66.9799 31.0766 65.339 27.3037Z" fill="black"/>
<path d="M47.4532 47.9726C48.2736 47.9726 48.93 47.9726 49.7504 47.9726C50.5709 47.9726 51.2272 47.9726 52.0477 47.9726C53.8527 47.8085 55.6577 47.4805 57.4626 47.1524L56.6422 44.0356C55.0013 44.3637 53.3604 44.6918 51.7195 44.8558C50.4068 45.0199 48.93 45.0199 47.6172 44.8558L47.4532 47.9726Z" fill="black"/>
<path d="M56.8063 61.7518C58.2563 61.7518 59.4318 60.5767 59.4318 59.1272C59.4318 57.6776 58.2563 56.5026 56.8063 56.5026C55.3563 56.5026 54.1808 57.6776 54.1808 59.1272C54.1808 60.5767 55.3563 61.7518 56.8063 61.7518Z" fill="black"/>
<path d="M79.943 61.7518C81.393 61.7518 82.5685 60.5767 82.5685 59.1272C82.5685 57.6776 81.393 56.5026 79.943 56.5026C78.493 56.5026 77.3176 57.6776 77.3176 59.1272C77.3176 60.5767 78.493 61.7518 79.943 61.7518Z" fill="black"/>
<path d="M38.4282 70.7739C37.9359 70.4458 35.6387 68.6414 35.1464 65.3606C34.8182 62.736 35.4746 59.9473 36.4591 59.4552C36.7873 59.2912 37.4436 59.4552 38.1 59.7833C39.2486 60.2754 39.7409 61.2596 39.905 61.5877L42.8586 60.2754C42.5304 59.4552 41.5459 57.6508 39.2486 56.8306C38.7564 56.6666 36.9514 55.8464 35.1464 56.5025C31.7005 57.8148 31.2082 62.9 31.7005 66.0168C32.3569 70.4458 35.6386 73.0704 36.295 73.5625C38.9204 75.531 41.71 75.8591 43.3509 75.8591C43.8432 75.8591 44.1713 75.8591 44.3354 75.8591L44.0072 72.5783C43.1868 72.4143 40.7255 72.4143 38.4282 70.7739Z" fill="black"/>
<path d="M72.0667 71.9222C72.7231 71.266 72.8871 70.4458 72.7231 69.6256C72.559 68.8054 71.9026 68.1493 71.0822 68.1493C70.754 68.9695 70.4258 69.2976 70.0976 69.4616C69.7694 69.6256 69.6054 69.6256 69.6054 69.7897C69.6054 69.7897 69.6053 69.9537 69.4413 70.2818C69.2772 70.6099 68.949 70.938 68.2926 71.266C68.4567 72.0862 69.1131 72.5783 69.9335 72.7424C70.5899 72.7424 71.4103 72.5783 72.0667 71.9222Z" fill="black"/>
<path d="M63.3699 81.4364C64.3544 82.2566 66.6517 83.5689 69.6054 83.5689H69.7694C74.3639 83.5689 77.1535 80.6162 77.9739 79.796L75.5126 77.6635C75.1844 78.1556 73.0512 80.4522 69.7694 80.4522C69.7694 80.4522 69.7694 80.4522 69.6054 80.4522C67.4722 80.4522 65.9954 79.4679 65.1749 78.9758L63.3699 81.4364Z" fill="black"/>
<path d="M86.8348 86.6856C88.968 84.225 90.4448 81.2724 91.4293 78.1556L88.3116 77.1714C87.4912 79.96 86.1785 82.4206 84.3735 84.5531C83.2248 85.8654 77.3176 92.427 67.8004 92.427C67.6363 92.427 67.6362 92.427 67.4722 92.427C59.7599 92.2629 52.54 87.8339 48.6018 80.7802L45.6482 82.4206C47.7814 86.1935 50.7349 89.3102 54.1808 91.6068L54.0168 100.793L53.5245 100.465L52.5399 100.957C50.899 101.777 49.5863 102.761 48.4377 103.91C47.7813 104.566 46.3045 106.206 45.4841 108.667C44.9918 110.143 44.8277 111.784 44.9918 113.752C45.32 117.197 46.4686 121.298 48.4377 125.235C49.5863 127.531 50.899 129.828 52.5399 131.96L55.0013 135.241L55.4936 131.14C55.9859 127.859 57.2986 123.102 61.0726 118.673C62.3854 117.033 64.0263 115.72 65.6672 114.408L70.0976 138.194L75.1844 114.08C76.6612 114.572 78.4662 115.556 79.943 117.033C84.2094 121.298 83.8812 127.203 83.7171 128.351L82.5685 138.85L86.8348 129.172C89.1321 124.086 90.4448 118.673 91.1011 113.424C91.5934 108.503 91.1011 105.386 89.6243 102.925C88.4757 100.957 86.6707 99.4806 84.5375 98.3324L83.7171 89.4743C85.358 88.4901 86.5066 87.1777 86.8348 86.6856ZM58.4472 116.705C55.4936 120.15 54.0168 123.758 53.0322 126.875C52.3759 125.891 51.8836 124.907 51.3913 123.758C49.5863 120.15 48.6018 116.541 48.2736 113.424C48.1095 111.291 48.2736 110.307 48.6018 109.487C49.2581 107.683 50.4068 106.37 50.899 105.878C51.5554 105.222 52.3759 104.566 53.1963 104.074C55.0013 105.55 56.9704 107.026 58.9395 108.503C60.4163 109.651 62.0572 110.799 63.534 111.784C61.729 113.424 59.924 114.9 58.4472 116.705ZM86.6707 105.058C87.4912 106.37 88.1475 108.339 87.6553 113.424C87.3271 116.213 86.8348 118.837 86.0144 121.626C85.358 119.493 84.0452 117.033 82.0762 115.064C80.2712 113.26 78.3021 112.112 76.4971 111.455L83.553 102.105C84.8657 102.761 86.0144 103.91 86.6707 105.058ZM81.0917 99.8087C78.138 103.91 75.1844 108.011 72.2308 111.948C72.0667 112.44 71.9026 112.932 71.7385 113.424L70.0976 121.462L68.4567 112.768C68.1285 112.112 67.8003 111.291 67.3081 110.635C65.0108 109.159 62.8776 107.683 60.7444 106.042C59.5958 105.222 58.4472 104.238 57.2986 103.418L57.4626 93.4112C60.5804 94.8876 63.8622 95.7078 67.3081 95.7078C67.4721 95.7078 67.4722 95.7078 67.6363 95.7078C72.8871 95.7078 77.1535 93.9033 80.4353 91.9349L81.0917 99.8087Z" fill="black"/>
<path d="M28.911 121.79C27.7623 122.446 26.7778 122.938 26.7778 122.938C25.301 123.758 23.9883 124.415 22.8397 124.907C20.0501 126.219 17.9169 127.203 14.7992 129.664C12.666 131.304 9.54832 134.257 6.5947 138.522C4.9538 140.818 2.82066 143.935 1.34384 148.692C0.359304 151.973 -0.132996 155.582 0.0310938 159.027L3.3129 158.863C3.14881 155.746 3.6411 152.629 4.46155 149.512C5.77427 145.247 7.74334 142.459 9.22015 140.326C12.0097 136.389 14.9633 133.765 16.7683 132.124C19.5578 129.828 21.5269 129.008 24.1524 127.695C25.301 127.203 26.6137 126.547 28.2546 125.727C28.2546 125.727 29.4032 125.071 30.5519 124.415C32.8491 123.102 38.5923 119.329 45.9763 114.244C45.9763 113.096 45.9763 111.948 45.9763 110.963C41.71 113.096 38.5923 115.228 36.4591 116.705C35.8028 117.197 32.1928 119.821 28.911 121.79Z" fill="black"/>
<path d="M133.765 136.717C131.96 134.585 129.662 132.616 128.842 131.796C126.873 130.156 125.396 129.172 122.278 127.203L120.966 126.383C119.981 125.727 118.996 125.071 118.012 124.415C118.012 124.415 115.879 122.938 114.238 121.954C111.776 120.314 102.916 114.9 90.773 107.519C90.4448 108.831 90.1166 109.979 89.7884 111.291C91.5934 112.276 108.495 122.282 112.433 124.743C114.074 125.727 116.207 127.203 116.207 127.203C117.191 127.859 118.176 128.515 119.161 129.172L120.473 129.992C123.591 132.124 124.904 132.945 126.709 134.421C127.365 134.913 129.662 136.881 131.303 138.85C133.436 141.311 136.062 145.904 136.718 153.285L140 152.957C139.18 144.755 136.062 139.67 133.765 136.717Z" fill="black"/>
</svg>
