<svg width="129" height="156" viewBox="0 0 129 156" fill="none" xmlns="http://www.w3.org/2000/svg">
<path d="M53.2226 15.6175C50.1396 19.024 47.5434 22.7549 45.2717 26.648C40.566 35.0831 37.8075 44.4914 37.1584 54.3865L40.4037 54.5487C41.0528 44.9781 43.649 36.2186 48.0301 28.1079C50.1396 24.377 52.7358 20.9705 55.4943 17.7263L53.2226 15.6175Z" fill="black"/>
<path d="M122.347 135.493C120.562 132.735 116.83 126.896 109.691 123.003C108.879 122.516 108.23 122.192 107.581 121.867C107.581 119.758 107.419 117.65 107.257 115.703C106.932 112.459 106.608 110.026 106.283 108.241L106.121 107.106C105.634 103.699 105.472 100.455 105.147 93.8043C104.823 87.1535 104.823 80.1784 105.147 73.041L101.902 72.8788C101.74 80.0162 101.74 86.9913 101.902 93.8043C102.226 100.617 102.226 104.024 102.875 107.592L103.038 108.728C103.362 110.512 103.687 112.783 104.011 115.865C104.174 117.487 104.174 118.947 104.174 120.569C104.174 120.569 104.174 120.569 104.011 120.569C102.226 120.083 100.279 119.434 96.8717 117.65C93.1396 115.703 89.5698 113.27 86.4868 110.674C84.0528 108.566 81.7811 106.132 79.6717 103.537L79.9962 90.7222C82.4302 89.5867 84.7019 88.1268 86.4868 86.1803C89.5698 83.2604 91.1925 80.1784 91.6793 78.8807C92.166 77.7452 92.4906 76.4475 92.8151 74.9876C94.2755 74.6631 96.3849 74.0143 98.1698 72.2299C99.6302 70.77 100.279 69.1479 100.604 68.0124C101.253 66.228 102.551 62.6593 100.766 59.0907C99.4679 56.4952 97.683 55.0353 95.5736 54.7109C94.1132 54.5487 92.8151 54.8731 91.6793 55.3598C91.1925 53.7376 90.7057 52.1155 90.0566 50.3311C86.4868 41.085 81.1321 35.4075 76.9132 30.8656C71.883 25.5125 65.8793 20.8083 59.3887 16.9152L57.7661 19.6728C63.9321 23.4037 69.6113 27.7835 74.4793 32.9743C76.1019 34.7587 78.0491 36.7052 79.834 38.9762C79.0227 38.814 78.2113 38.6518 77.4 38.6518C75.9396 38.6518 73.9925 38.6518 72.2076 38.6518L72.3698 41.8961C73.9925 41.8961 75.7774 41.8961 77.4 42.0583C79.3472 42.2205 81.1321 42.5449 83.0793 43.0316C84.7019 45.4648 86.1623 48.3846 87.4604 51.6289C90.0566 58.604 90.3811 64.2815 90.5434 66.7147C90.7057 71.4189 90.2189 75.312 89.083 77.7452C88.5962 78.7185 87.2981 81.3139 84.5396 83.9093C81.1321 87.1535 77.4 88.6135 74.8038 89.2623L75.6151 92.3444C76.1019 92.1822 76.5887 92.0199 76.9132 92.0199L76.5887 104.673L76.9132 105.159C79.1849 108.079 81.7811 110.837 84.5396 113.108C86.1623 114.405 87.7849 115.703 89.7321 117.001C90.2189 121.705 90.5434 126.409 90.8679 131.113C91.3547 139.224 91.6793 147.335 91.6793 155.445H94.9245C94.9245 147.335 94.6 139.062 94.1132 130.951C93.7887 127.058 93.6264 123.003 93.1396 119.11C93.951 119.596 94.6 119.921 95.4113 120.407C99.1434 122.354 101.253 123.003 103.2 123.652C104.823 124.138 106.121 124.463 108.068 125.76C114.396 129.329 117.966 134.682 119.589 137.277C123.97 144.09 125.43 150.903 125.755 155.445L129 155.121C128.513 150.417 127.053 142.955 122.347 135.493ZM95.2491 58.1174C96.8717 58.4418 97.683 60.0639 98.0076 60.7128C99.1434 63.146 98.1698 65.7414 97.683 67.2013C97.3585 68.1746 97.034 69.1479 96.0604 70.2834C95.2491 71.0944 94.2755 71.5811 93.4642 71.9055C93.6264 70.2834 93.6264 68.499 93.4642 66.7147C93.4642 65.2548 93.3019 62.4971 92.6528 59.0907C93.3019 58.4418 94.2755 57.9552 95.2491 58.1174Z" fill="black"/>
<path d="M72.0453 136.304C69.9358 136.304 68.4755 136.304 66.366 136.304C65.0679 136.304 63.7698 136.142 61.8226 136.142C58.0906 136.142 54.3585 136.142 50.6264 136.304C49.4906 133.871 48.3547 131.438 47.0566 129.005C45.1094 125.274 43.1623 121.543 41.0528 117.974C43.8113 117.325 47.7057 116.352 51.7623 113.757C53.2226 112.783 54.5207 111.81 55.8189 110.512L56.3057 110.026L56.6302 89.1001L55.6566 88.6134C52.4113 87.3157 49.6528 85.3692 47.2189 83.0982C45.9207 81.8005 43.649 79.5295 42.1887 75.4742C41.2151 72.8788 40.8906 70.2834 41.2151 67.5257L37.9698 67.2013C37.8075 68.6612 37.8075 69.9589 37.9698 71.4189C37.6453 71.2566 37.483 70.9322 37.1585 70.77C37.1585 70.77 33.4264 66.8769 34.4 62.3349C34.8868 60.2261 36.0226 58.4418 36.3472 58.4418C36.5094 58.4418 36.834 58.7662 37.483 59.7395L40.4038 58.1174C39.1057 55.6842 37.6453 55.1975 36.6717 55.1975C33.4264 55.1975 31.8038 59.4151 31.317 61.6861C30.0189 67.8502 34.7245 72.8788 34.8868 73.041C36.0226 74.1765 37.3207 75.1498 38.9434 75.9608C38.9434 76.123 39.1057 76.4475 39.1057 76.6097C40.7283 81.1516 43.4868 84.0715 44.7849 85.3692C47.2189 87.8024 49.9773 89.7489 53.2226 91.2089L52.8981 108.566C51.9245 109.377 50.7887 110.188 49.8151 110.999C45.7585 113.594 41.8641 114.405 39.1057 115.054L38.6189 115.216C33.5887 116.19 28.883 117.163 24.8264 118.785C24.9887 115.054 25.1509 111.323 25.3132 107.592C25.4755 100.617 25.4755 96.3997 25.6377 90.56C25.6377 87.3157 25.6377 83.7471 25.8 78.8807C26.1245 57.4685 26.6113 53.0888 26.7736 50.6556C27.7472 41.2472 28.234 36.7052 30.6679 30.7033C34.5623 20.3217 40.4038 14.3198 42.6755 12.0488C45.434 9.45341 48.8415 6.20914 54.5207 4.4248C59.8755 2.80266 64.5811 3.2893 67.6641 3.61373C69.449 3.77594 74.1547 4.26259 79.1849 6.69578C89.2453 11.5622 93.7887 20.9705 95.8981 25.5125C98.9811 32.1633 100.604 39.3006 100.441 46.7624H103.687C103.849 38.6518 102.064 31.0278 98.8189 24.0526C96.7094 19.5106 91.6792 8.96677 80.483 3.77594C75.1283 1.18053 69.9358 0.693894 67.8264 0.369468C64.4189 0.0450415 59.3887 -0.603812 53.3849 1.34275C47.0566 3.28931 43.1623 7.02021 40.2415 9.61562C37.8075 11.8866 31.6415 18.3751 27.4226 29.4056C24.8264 36.0564 24.3396 41.085 23.366 50.1689C23.0415 52.7643 22.5547 57.1441 22.3924 78.7184C22.3924 83.5848 22.2302 87.1535 22.2302 90.3978C22.2302 96.2375 22.2302 100.455 21.9057 107.43C21.7434 111.648 21.5811 116.027 21.4189 120.245C12.1698 124.949 7.46415 133.384 5.51698 137.115C2.59623 142.468 0.649056 148.47 0 154.634L3.24528 154.959C3.89434 149.119 5.67924 143.604 8.43773 138.575C10.3849 135.006 14.9283 126.734 23.8528 122.678C27.7472 120.894 32.4528 119.758 37.6453 118.785C39.917 122.678 42.0264 126.571 43.9736 130.627C48.0302 138.575 51.6 146.848 54.683 155.283L57.766 154.148C55.9811 149.281 54.034 144.415 51.7623 139.711C55.0075 139.548 58.2528 139.548 61.4981 139.548C63.283 139.548 64.7434 139.711 65.8792 139.711C67.3396 139.711 68.4755 139.873 69.7736 139.873C70.4226 139.873 71.0717 139.873 71.7207 139.873C75.4528 139.711 79.1849 139.224 82.917 138.413L82.2679 135.169C79.1849 135.655 75.6151 136.142 72.0453 136.304Z" fill="black"/>
<path d="M50.951 43.5182C52.4114 42.8693 53.8717 42.5449 55.4944 42.2205L55.0076 38.9762C53.2227 39.3006 51.4378 39.7873 49.8151 40.4361C47.5434 41.4094 45.434 42.7071 43.6491 44.3292L45.7585 46.7624C47.2189 45.4647 49.0038 44.3292 50.951 43.5182Z" fill="black"/>
<path d="M72.6943 64.9303C72.0453 63.4704 71.3962 62.0105 70.7472 60.3884C70.0981 58.7662 69.4491 57.1441 68.8 55.522L65.717 56.6575C66.366 58.2796 67.0151 59.9017 67.6642 61.5239C68.3132 63.146 68.9623 64.6059 69.7736 66.228L72.6943 64.9303Z" fill="black"/>
<path d="M56.7924 73.041L57.2792 74.9875C57.766 76.7719 58.5774 78.2318 59.7132 79.6917C60.5245 80.5028 63.1208 83.4226 67.6641 83.747C67.8264 83.747 68.1509 83.747 68.3132 83.747C70.9094 83.747 73.5057 82.7737 75.6151 80.9894C78.5358 78.5562 79.5094 75.6364 79.834 74.0142L80.1585 71.9055L78.049 72.0677C74.8038 72.3921 71.5585 72.5543 68.3132 72.7165C65.2302 72.8787 62.1472 73.041 59.0642 73.041H56.7924ZM68.3132 75.9608C70.7472 75.7986 73.3434 75.6364 75.7774 75.4741C75.2906 76.4474 74.6415 77.5829 73.5057 78.5562C71.883 80.0161 69.7736 80.665 67.8264 80.5028C64.7434 80.3405 62.7962 78.2318 62.1472 77.5829C61.8226 77.0963 61.4981 76.7719 61.1736 76.2852C63.6075 76.123 66.0415 75.9608 68.3132 75.9608Z" fill="black"/>
<path d="M55.8188 57.6307C57.3423 57.6307 58.5773 56.3961 58.5773 54.8731C58.5773 53.3501 57.3423 52.1155 55.8188 52.1155C54.2954 52.1155 53.0603 53.3501 53.0603 54.8731C53.0603 56.3961 54.2954 57.6307 55.8188 57.6307Z" fill="black"/>
<path d="M78.8604 56.8197C80.3839 56.8197 81.6189 55.5851 81.6189 54.0621C81.6189 52.5391 80.3839 51.3044 78.8604 51.3044C77.3369 51.3044 76.1019 52.5391 76.1019 54.0621C76.1019 55.5851 77.3369 56.8197 78.8604 56.8197Z" fill="black"/>
</svg>
