<svg width="182" height="208" viewBox="0 0 182 208" fill="none" xmlns="http://www.w3.org/2000/svg">
<path d="M61.9381 131.947C58.6237 133.812 55.3093 135.884 51.7878 138.164C49.3019 140.029 46.8161 141.687 44.5375 143.344C44.5375 151.219 44.9518 159.923 46.4018 169.248C47.0233 173.185 47.6447 176.916 48.4733 180.439C49.3019 178.159 51.1663 173.807 55.5165 170.491C57.3808 169.041 59.6595 167.176 63.1811 166.761C65.6669 166.554 66.9098 167.176 72.0885 167.383C74.16 167.59 76.0244 167.383 77.0602 167.383C76.853 165.104 76.853 162.824 76.6459 160.545C74.3672 159.094 68.7741 155.364 65.2526 148.318C61.5238 141.272 61.731 134.641 61.9381 131.947Z" fill="#F1F2F2"/>
<path d="M118.49 153.913C118.076 159.301 117.662 165.725 117.04 172.771L107.511 160.337H106.476C105.647 160.337 104.818 160.337 103.99 160.337C101.918 160.337 99.8467 160.544 97.9823 160.752C95.9108 161.166 93.8393 161.581 91.7678 162.41C91.975 161.788 92.1821 161.373 92.5964 160.752C93.6322 159.094 94.6679 158.265 96.3251 157.022C96.9466 156.607 97.5681 155.985 98.1895 155.571C100.675 153.499 103.161 151.012 105.44 148.318L106.683 146.867C107.304 146.246 107.718 145.624 108.133 145.002C109.168 143.552 110.204 142.101 111.033 140.65L107.511 138.578C106.683 140.029 105.854 141.272 104.818 142.516C104.404 142.93 103.99 143.552 103.575 143.966L99.4324 139.822L99.0181 132.361L109.997 132.569C111.654 133.812 113.104 135.263 114.554 137.128C114.969 137.749 116.419 139.614 117.247 141.894C119.112 146.453 118.697 151.012 118.49 153.913Z" fill="#F1F2F2"/>
<path d="M2.48584 202.405C2.69299 200.333 3.10729 197.431 4.14305 193.908C5.1788 190.178 8.07891 183.133 18.6436 172.564C24.0295 167.176 32.7299 159.716 45.1589 153.292C45.7804 163.446 46.609 173.807 47.2304 183.961C49.7162 178.159 52.6163 174.014 54.6879 171.528C56.3451 169.455 57.7951 168.005 59.8666 167.383C62.1453 166.554 63.8025 166.761 66.7026 167.176C69.3956 167.383 73.1243 167.798 77.8887 167.798C78.0959 175.051 78.5102 182.096 78.7173 189.349C80.3746 187.484 82.4461 184.583 83.8961 180.646C86.5891 173.807 84.9319 169.455 88.6606 166.347C90.3178 164.689 92.3893 164.275 96.3252 163.446C100.468 162.617 103.99 162.617 106.268 162.824C110.411 168.212 114.347 173.393 118.49 178.781C119.526 172.978 120.562 166.347 120.976 159.301C121.183 155.157 121.39 151.219 121.39 147.282C123.669 148.318 127.191 150.183 131.334 152.255C148.527 161.374 157.849 166.347 166.549 176.294C175.664 186.655 178.15 195.774 178.564 197.846C179.6 201.783 180.014 205.306 180.014 207.793C150.806 206.342 121.183 205.099 90.9392 204.27C60.6952 203.441 31.2798 202.819 2.48584 202.405Z" fill="#DC5151"/>
<path d="M41.8444 130.082C42.673 130.082 44.7446 130.082 45.7803 128.838C46.6089 127.595 45.9875 125.73 45.1589 122.829C44.3303 119.928 44.1231 117.026 43.2945 114.332C41.6373 107.908 42.8802 101.899 43.916 96.7179C44.9517 91.33 46.1946 88.636 49.7162 80.3469C58.2094 59.624 56.345 60.4529 59.8666 54.6505C63.3881 48.8481 68.3597 40.7662 78.303 36.2072C80.7888 35.171 89.9034 31.0264 99.2252 34.5493C102.332 35.7927 104.404 37.2433 105.854 38.4867C112.483 43.6674 115.383 50.0915 116.626 52.9927C121.805 64.5975 120.147 75.7879 119.319 80.5541C119.526 80.3469 123.669 77.4457 126.155 79.1035C126.569 79.3107 127.191 79.9324 127.812 82.6264C128.433 85.3204 129.262 89.0505 127.812 92.5734C127.398 93.4023 126.569 94.8529 121.805 98.3758C115.176 103.142 114.347 102.106 110.619 105.214C107.097 108.323 107.304 109.566 102.125 114.54C100.054 116.612 98.1895 118.063 96.9466 118.891C96.9466 122.414 97.1537 125.73 97.1537 129.253C99.6395 129.253 103.368 129.046 107.718 129.046C112.276 129.046 114.554 129.046 116.833 129.253C121.598 129.875 125.326 131.118 127.812 131.947C134.648 134.226 135.062 135.677 138.17 135.884C141.07 136.091 145.213 135.47 151.013 130.289C147.699 129.253 142.52 127.181 139.412 122.414C136.512 118.063 136.72 113.296 137.341 102.313C137.962 93.6095 138.377 89.2577 139.412 80.5541C141.277 65.6336 143.141 49.4698 136.098 36.6216C133.612 32.2698 127.398 22.9445 110.826 16.7276C110.204 14.6553 108.34 10.3035 103.99 6.78062C103.161 6.15894 97.568 1.59991 89.4891 1.80714C82.8603 2.01437 78.303 5.33002 68.9812 11.9613C67.5311 12.9975 65.0453 14.8626 62.1452 17.3493C55.5164 23.1517 50.3376 29.9903 36.0442 55.065C28.3796 68.5349 26.7224 72.0577 25.2724 76.2023C23.2009 82.2119 20.9222 88.8433 21.1294 97.5469C21.3365 101.899 21.7508 112.467 28.7939 121.171C30.0368 123.658 35.4228 130.082 41.8444 130.082Z" fill="#6D5A55"/>
<path d="M40.3945 133.605L42.2588 129.875C37.0801 127.181 30.0369 122.207 25.8939 113.711C20.0937 102.106 22.9938 90.0867 25.0653 82.4193C25.6868 79.5181 27.344 72.8867 40.8088 51.3349L43.0874 47.6048C49.9234 36.6217 54.0664 30.1976 59.2452 23.9807C61.731 21.0795 64.424 18.1783 67.1169 15.4844L64.2168 12.5831C61.5239 15.4843 58.6237 18.3855 56.1379 21.2867C50.752 27.7108 46.4018 34.3422 39.5659 45.5325L37.2872 49.2626C23.4081 71.4361 21.7509 78.2747 20.9223 81.3831C18.8508 89.8795 15.7435 102.52 22.1652 115.576C26.9297 125.108 34.5942 130.704 40.3945 133.605Z" fill="black"/>
<path d="M86.5891 5.12287C88.4534 4.70841 92.5964 3.87947 97.1538 5.74453C103.783 8.4385 106.268 14.8626 106.89 16.7277L110.826 15.4843C109.997 13.2048 106.89 5.33009 98.811 2.01443C93.0107 -0.265086 87.832 0.77104 85.7605 1.1855C79.3388 2.6361 75.1958 5.95178 72.5028 8.64575L75.6101 11.5469C77.2673 9.47465 80.996 6.15901 86.5891 5.12287Z" fill="black"/>
<path d="M128.848 30.612C132.577 34.9638 135.477 43.0457 136.927 53.1999C138.791 66.0481 137.548 77.0313 136.72 84.0771V84.6988C136.098 89.2578 134.855 101.484 135.477 114.54C135.684 117.026 135.891 122.829 140.034 126.766C142.313 129.046 145.42 130.289 148.942 130.704L149.356 126.559C146.663 126.145 144.384 125.316 142.727 123.658C139.62 120.757 139.413 116.198 139.413 114.125C138.791 101.484 140.241 89.4651 140.655 85.1133V84.4915C141.484 77.0313 142.727 66.0482 140.863 52.5783C139.205 41.5951 136.305 32.8915 131.955 27.9181C128.019 23.359 123.048 19.6289 117.04 17.3494L115.59 21.2867C120.769 23.359 125.326 26.4674 128.848 30.612Z" fill="black"/>
<path d="M103.783 35.171L101.711 38.6939C105.44 40.9734 108.547 43.6674 111.033 47.1903C118.076 56.93 117.247 68.1204 116.626 72.6795L120.769 73.3011C121.598 68.3276 122.633 55.8939 114.554 44.9108C111.447 40.9734 107.926 37.6578 103.783 35.171Z" fill="black"/>
<path d="M137.548 135.055C135.062 134.641 133.405 133.398 132.577 132.569L129.676 135.47C130.919 136.713 133.405 138.578 137.134 139.2C137.755 139.2 138.17 139.407 138.791 139.407C140.863 139.407 142.52 138.993 143.556 138.578L142.105 134.641C140.863 135.055 139.412 135.47 137.548 135.055Z" fill="black"/>
<path d="M59.4523 164.689C58.2094 165.311 56.9665 166.14 55.9307 166.969C54.0664 168.419 52.6163 170.284 49.509 176.087L46.8161 144.588C49.3019 142.516 51.7877 140.651 54.4807 138.785C57.1736 136.92 60.0737 135.47 62.9739 134.019L61.1095 130.289C58.0022 131.74 54.895 133.397 51.9949 135.263C48.8876 137.335 45.7803 139.614 43.0874 142.101L42.2588 142.723L43.0874 151.219C38.3229 154.328 33.5584 157.643 29.0011 160.959C17.1935 169.663 12.2219 175.051 8.70033 179.402C5.38592 183.34 3.52156 186.241 2.27866 189.764C0.828603 193.701 0 197.846 0 202.198H4.14302C4.14302 198.467 4.76447 194.737 6.00737 191.422C7.25028 188.313 8.70033 185.826 11.8076 182.304C15.3292 178.159 20.0936 173.185 31.4869 164.689C35.4228 161.788 39.3587 158.887 43.5017 156.193L46.4018 191.214L49.7162 184.376C50.752 182.304 51.7877 180.438 52.4092 179.195C55.9307 172.564 57.1736 171.32 58.4165 170.284C59.038 169.663 59.8666 169.248 60.6952 168.626L70.4313 169.248L70.6384 165.103L60.0737 164.482L59.4523 164.689Z" fill="black"/>
<path d="M177.943 190.385C176.493 187.277 175.042 184.376 173.178 181.682C169.864 176.501 164.271 170.906 157.227 165.518C150.392 160.13 144.591 156.814 133.198 150.39C129.676 148.318 125.948 146.453 122.219 144.381C122.012 142.93 121.598 141.479 120.976 139.822C119.94 137.128 118.49 135.055 117.662 134.019C116.004 131.74 113.933 129.875 111.654 128.217L111.24 127.802L98.8109 127.388L98.6038 119.099C100.675 117.648 102.747 115.99 105.025 113.711C106.476 112.26 107.511 111.017 108.547 109.773C110.411 107.494 111.654 106.043 114.554 104.593C115.59 104.178 116.212 103.764 117.04 103.557C118.49 103.142 119.94 102.52 122.012 101.07C123.876 99.8264 127.191 97.5469 129.262 93.1951C130.091 91.7445 132.162 87.6 130.712 83.0409C129.884 79.9325 128.226 78.0674 126.155 77.4457C123.255 76.6168 120.769 78.4819 118.905 79.9325C116.626 81.5903 114.969 83.8698 113.519 86.5638L117.247 88.4288C118.283 86.3565 119.526 84.6987 121.183 83.4553C122.426 82.6264 123.876 81.3831 124.705 81.7975C125.119 82.0048 125.948 82.6264 126.569 84.6987C127.398 87.8072 125.948 90.7084 125.326 91.9517C123.669 95.2674 120.976 97.1325 119.526 98.1686C117.869 99.2048 116.833 99.6192 115.59 100.241C114.762 100.655 113.726 100.863 112.483 101.484C108.754 103.349 107.097 105.422 105.025 107.908C103.99 109.152 103.161 110.188 101.711 111.638C95.7037 117.648 89.9034 120.135 85.9676 121.378C82.8603 122.207 76.2315 124.072 69.6027 121.171C62.5595 118.063 59.4523 111.846 58.8308 109.981C55.7236 102.728 55.7236 97.9614 55.7236 97.9614V97.7541C55.7236 96.5108 55.7236 94.6457 54.4807 92.7807C53.2377 90.7084 51.3734 89.0506 48.6804 88.0144C49.509 85.7349 50.3376 83.2481 51.1662 80.3469C53.8592 72.4722 55.7236 67.2915 58.0022 62.7325C60.6952 62.5252 63.181 62.318 65.874 62.318C68.5669 62.318 71.2599 62.5252 73.9528 62.7325L74.3671 58.5879C71.6742 58.3806 68.7741 58.1735 65.874 58.1735C64.0096 58.1735 62.1452 58.1734 60.2809 58.3806C61.1095 56.93 61.9381 55.6867 62.7667 54.2361C66.9097 48.2264 70.6384 42.424 78.0959 38.9011C82.8603 36.6216 88.2462 35.7927 94.0465 36.2072L94.4608 32.0626C87.8319 31.4409 81.8246 32.6843 76.2315 35.171C67.7383 39.1084 63.3881 45.7397 59.2451 51.9566C54.0664 59.6241 51.5805 66.4626 47.2304 79.1035C39.3586 101.691 39.9801 108.116 40.1872 110.602C40.8087 116.405 42.6731 122.207 45.5732 127.802L49.3019 125.73C46.6089 120.757 44.9517 115.369 44.3303 110.188C44.1231 108.53 43.7088 104.593 47.4375 92.159C49.0947 92.7807 50.3376 93.8168 50.9591 94.8529C51.5805 95.8891 51.5805 96.9252 51.5805 97.9614V98.1686C51.5805 98.3758 51.7877 103.764 55.1021 111.638C57.5879 117.441 62.3524 122.622 68.1526 125.108C68.9812 125.523 69.8098 125.73 70.4313 125.937L70.6384 142.93L66.4954 145.417C66.0811 143.552 65.6668 141.687 65.6668 139.822H61.5238C61.5238 143.552 62.1452 147.075 63.5953 150.39C64.0096 151.426 65.6668 154.535 68.5669 157.436C70.6384 159.508 73.1242 161.373 75.61 162.824L76.2315 194.323L79.7531 190.385C82.8603 187.07 85.139 183.34 86.1747 179.402C86.3819 178.573 86.589 177.745 86.7962 176.916C87.0033 175.879 87.4176 174.636 87.8319 173.186C88.4534 171.32 89.0748 169.455 89.9035 167.798C92.5964 166.554 95.2894 165.725 98.1895 165.311C100.468 164.896 102.747 164.896 104.818 164.896L119.526 184.376L119.94 178.988C120.769 169.87 121.39 161.373 121.805 154.742C121.805 153.499 122.012 152.048 122.012 150.183C124.912 151.634 127.605 153.291 130.298 154.742C141.484 160.959 147.284 164.275 153.913 169.455C160.542 174.636 165.721 180.024 168.828 184.583C170.485 187.07 171.935 189.764 173.178 192.665C175.457 197.639 176.907 203.026 177.735 208.622L181.878 208C181.878 201.576 180.221 195.981 177.943 190.385ZM83.2746 175.465C83.0675 176.294 82.8603 176.916 82.6532 177.745C82.2389 179.402 81.4103 180.853 80.5817 182.511L80.1674 159.508L78.9244 158.887C76.2315 157.643 73.9528 155.985 71.8813 153.913C70.017 152.048 68.7741 150.183 68.1526 148.94L74.9886 145.002L74.7814 126.559C75.8172 126.766 76.8529 126.766 77.6815 126.766C81.8246 126.766 85.3461 125.73 87.4176 125.108C89.282 124.487 91.7678 123.658 94.4608 122.207L94.6679 127.802L94.8751 130.082L95.2894 141.479L100.675 147.489C99.2252 149.147 97.568 150.805 95.9108 152.255C95.2894 152.877 94.6679 153.291 94.0465 153.706C92.1821 155.157 90.5249 156.4 89.282 158.679C88.0391 160.545 87.4176 162.824 87.2105 165.311C86.1747 167.383 85.3461 169.455 84.7247 171.528C83.6889 173.185 83.4818 174.429 83.2746 175.465ZM118.49 153.913C118.076 159.301 117.662 165.725 117.04 172.771L107.511 160.337H106.476C105.647 160.337 104.818 160.337 103.99 160.337C101.918 160.337 99.8467 160.545 97.9823 160.752C95.9108 161.166 93.8393 161.581 91.7678 162.41C91.975 161.788 92.1821 161.373 92.5964 160.752C93.6322 159.094 94.6679 158.265 96.3251 157.022C96.9466 156.607 97.568 155.986 98.1895 155.571C100.675 153.499 103.161 151.012 105.44 148.318L106.683 146.867C107.304 146.246 107.718 145.624 108.133 145.002C109.168 143.552 110.204 142.101 111.033 140.651L107.511 138.578C106.683 140.029 105.854 141.272 104.818 142.516C104.404 142.93 103.99 143.552 103.575 143.966L99.4324 139.822L99.0181 132.361L109.997 132.569C111.654 133.812 113.104 135.263 114.554 137.128C114.969 137.749 116.419 139.614 117.247 141.894C119.112 146.453 118.697 151.012 118.49 153.913Z" fill="black"/>
<path d="M105.854 61.2819C103.368 60.8675 101.09 60.453 98.6038 60.2458C96.5323 60.0386 94.4608 59.8313 92.5964 59.8313L92.3893 63.9759C94.2536 63.9759 96.3252 64.1831 98.1895 64.3904C100.468 64.5976 102.747 65.012 105.025 65.4265L105.854 61.2819Z" fill="black"/>
<path d="M67.3241 82.0048C69.0402 82.0048 70.4313 80.6131 70.4313 78.8964C70.4313 77.1797 69.0402 75.788 67.3241 75.788C65.608 75.788 64.2168 77.1797 64.2168 78.8964C64.2168 80.6131 65.608 82.0048 67.3241 82.0048Z" fill="black"/>
<path d="M96.7395 84.2843C98.4556 84.2843 99.8467 82.8926 99.8467 81.1758C99.8467 79.4591 98.4556 78.0674 96.7395 78.0674C95.0234 78.0674 93.6322 79.4591 93.6322 81.1758C93.6322 82.8926 95.0234 84.2843 96.7395 84.2843Z" fill="black"/>
<path d="M79.3388 89.8795C79.9603 88.0144 80.3746 86.1494 80.5817 84.0771L76.4387 83.6626C76.2315 85.3204 75.8172 86.9782 75.4029 88.6361L75.1958 89.465C74.7815 90.5011 74.3672 91.7446 74.3672 93.4024C74.3672 94.6458 74.5743 96.0963 75.1958 97.3397L79.1317 95.8891C78.7174 95.0602 78.7174 94.2313 78.7174 93.4024C78.7174 92.5735 78.9245 91.7445 79.3388 90.9156V89.8795Z" fill="black"/>
<path d="M77.6815 109.981C78.303 109.981 78.9244 110.188 79.5459 110.188C86.3819 110.188 90.732 105.214 91.1463 104.593L88.0391 101.899C87.8319 102.106 84.1032 106.665 78.303 106.043C75.1957 105.629 72.9171 103.764 71.8813 102.728L68.774 105.422C70.2241 106.872 73.3314 109.566 77.6815 109.981Z" fill="black"/>
</svg>
