<svg width="192" height="239" viewBox="0 0 192 239" fill="none" xmlns="http://www.w3.org/2000/svg">
<path d="M63.6519 24.147C60.3375 26.841 59.9232 26.2193 56.8159 28.9133C54.9516 30.5711 50.1871 34.7157 48.1156 41.1398C46.6655 45.6988 47.0798 49.2217 47.9084 55.0241C48.3227 58.3398 49.9799 73.6747 54.7444 74.2964C56.1945 74.5036 57.8517 73.053 58.4731 72.0169C59.716 70.1518 59.3017 68.2868 59.0946 65.8C58.6803 59.5831 60.7518 54.4024 61.7875 52.1229C63.0304 49.0145 64.4805 46.9422 65.9305 45.0771C68.2092 41.9687 72.5594 36.3735 80.0168 33.4723C84.5741 31.8145 88.51 31.6072 90.3743 31.6072C93.0673 31.6072 96.1746 32.2289 102.596 33.4723C105.082 33.8868 107.154 34.5084 108.604 34.7157C110.261 36.5807 111.918 38.653 113.368 41.1398C118.754 49.4289 120.826 57.5108 121.654 63.3133C121.033 65.5928 120.618 69.3229 121.24 73.4675C121.654 76.1615 122.276 78.441 122.897 80.306C126.419 73.8819 127.454 68.2868 127.869 64.7639C128.697 57.5108 127.454 51.9157 126.419 46.3205C125.176 40.5181 123.518 35.7518 122.068 32.4362C124.14 31.6072 127.869 29.5349 130.976 25.5976C135.948 18.9663 135.533 11.7133 135.326 9.8482C133.462 11.506 130.562 13.5783 126.626 14.2C120.411 15.0289 117.304 11.506 106.118 7.15422C97.8318 4.04579 93.6888 2.38796 88.3028 3.21687C80.224 4.46025 74.6309 10.4699 73.5951 11.7133C69.245 16.4795 69.245 19.588 63.6519 24.147Z" fill="#323942"/>
<path d="M134.083 149.728C136.362 150.971 140.298 153.043 145.269 155.323C154.384 159.467 157.077 159.675 163.706 163.405C167.434 165.477 171.785 167.757 176.549 172.316C178.828 174.595 181.935 177.289 184.421 181.848C185.249 183.506 187.942 188.48 188.771 195.525C188.978 197.598 188.978 199.255 188.978 200.499C38.3794 215.212 4.40666 210.446 2.74945 202.778C2.33515 200.292 3.99236 192.002 8.54968 184.957C11.8641 179.569 16.0071 176.046 18.4929 173.973C23.6717 169.622 24.9146 170.243 33.4078 164.855C41.0724 159.882 41.6938 158.224 48.3226 154.287C53.2943 151.386 57.4373 149.52 60.3374 148.484C59.9231 151.178 59.7159 155.323 60.9589 159.675C63.859 170.865 72.9736 176.46 75.4594 177.911C76.288 174.388 76.4952 171.694 76.4952 169.622C76.288 166.513 75.8737 164.855 76.7023 162.783C77.5309 160.711 79.3952 159.467 80.8453 158.846C82.5025 160.711 84.5741 163.405 86.4384 167.135C87.8885 170.243 88.717 173.352 89.1313 175.424C90.1671 175.01 91.41 174.595 93.2744 174.595C98.0388 174.595 101.146 178.118 101.768 178.947C102.803 175.631 104.668 171.279 107.568 166.928C109.432 164.026 111.504 161.54 113.368 159.467C114.818 161.747 116.268 164.855 117.304 169C117.718 170.865 117.925 172.73 118.132 174.181C121.447 170.658 125.176 166.306 128.697 161.125C130.147 157.188 132.426 153.251 134.083 149.728Z" fill="#808285"/>
<path d="M74.4237 132.113C73.3879 132.113 71.5236 132.113 69.4521 132.735C66.5519 133.771 64.8947 135.429 64.2733 136.465C60.7517 140.402 60.3374 145.376 59.9231 148.692C59.3017 155.737 61.166 161.125 61.5803 162.369C65.1019 171.694 72.3522 176.667 75.0451 178.118C75.2523 173.352 75.4594 169.829 75.6666 167.757C75.8737 164.441 75.8737 162.99 76.9095 161.333C77.5309 160.296 78.3596 159.26 82.0883 157.188C84.1598 156.152 87.0599 154.701 90.7886 153.251C88.7171 150.349 86.6456 148.899 84.9884 147.863C82.0883 146.205 80.0168 145.998 77.3238 143.718C75.8737 142.475 74.838 141.231 74.2165 140.402C74.4237 137.708 74.4237 134.807 74.4237 132.113Z" fill="#E6E7E8"/>
<path d="M112.539 130.455C113.782 130.248 115.647 130.248 117.718 130.87C120.825 131.906 122.69 133.978 124.968 137.087C127.04 139.573 127.247 140.61 130.147 144.754C131.597 147.034 133.047 148.692 133.876 149.935C132.219 153.458 130.147 157.395 127.454 161.333C123.933 166.72 120.204 171.072 116.89 174.388C116.682 171.072 115.854 166.306 113.161 161.54C111.711 159.053 110.054 155.737 106.118 153.251C104.046 151.8 101.975 151.178 100.732 150.971C103.425 148.484 105.496 146.205 106.946 144.547C108.396 142.889 109.432 141.853 110.261 140.61C111.297 139.366 112.125 138.123 112.539 137.294C112.747 135.014 112.539 132.735 112.539 130.455Z" fill="#E6E7E8"/>
<path d="M93.0672 189.308C97.0714 189.308 100.317 186.061 100.317 182.055C100.317 178.05 97.0714 174.802 93.0672 174.802C89.063 174.802 85.8169 178.05 85.8169 182.055C85.8169 186.061 89.063 189.308 93.0672 189.308Z" fill="#E6E7E8"/>
<path d="M104.668 166.513C103.425 168.793 102.389 171.072 101.353 173.352C101.146 173.145 100.939 173.145 100.732 172.937C99.9033 172.523 98.8675 172.108 98.0389 172.108C98.0389 171.694 97.8318 171.487 97.8318 171.072C97.0032 164.234 99.0747 158.846 99.9033 156.981C100.318 155.737 100.939 154.494 101.768 153.251C103.011 153.665 104.046 154.08 105.082 154.701C106.946 155.945 108.189 157.395 109.225 158.639C107.775 161.333 106.118 163.819 104.668 166.513Z" fill="#E6E7E8"/>
<path d="M84.7812 160.711C84.3669 160.089 83.7455 159.675 83.124 159.053C83.124 159.053 83.124 159.053 83.3312 159.053C84.9884 158.224 86.4384 157.395 88.0956 156.773C87.8885 158.224 87.8885 159.675 87.8885 161.125C87.8885 162.99 87.8885 165.063 87.8885 166.928C87.8885 166.928 87.8885 166.928 87.8885 166.72C86.6456 163.405 85.817 161.954 84.7812 160.711Z" fill="#E6E7E8"/>
<path d="M75.6666 11.506C77.9452 9.43376 81.674 6.11809 87.0599 5.08195C93.2744 3.83858 98.6604 5.91087 101.353 7.15424C103.632 7.98315 105.289 9.0193 106.946 10.0554C109.225 11.506 111.711 12.9566 116.475 14.6145C120.825 16.0651 122.69 16.2723 124.554 16.2723C127.869 16.0651 130.976 14.4072 133.876 11.9205C134.083 13.9928 133.669 16.6868 132.633 19.3807C130.354 25.5976 125.383 28.4988 123.518 29.535C118.547 32.4362 112.125 33.4723 106.325 32.4362C105.911 32.4362 105.082 32.2289 104.253 32.0217C102.596 31.6072 100.318 31.1928 96.5888 30.3639C93.4816 29.7422 91.6172 29.3277 89.1314 29.7422C86.4384 29.9494 83.9526 30.9856 81.4668 32.4362L83.5383 35.9591C85.4027 34.7157 87.4742 34.094 89.5457 33.8868C91.4101 33.6795 92.8601 33.8868 95.7602 34.5085C99.489 35.3374 101.768 35.7518 103.425 36.1663C104.461 36.3735 105.082 36.5807 105.703 36.5807C107.361 36.9952 109.225 36.9952 110.882 36.9952C116.061 36.9952 121.24 35.5446 125.59 33.0579C127.661 31.8145 133.669 28.2916 136.569 20.8313C138.226 16.4795 138.433 11.506 137.19 6.73978L136.155 2.5952L133.669 6.11809C132.012 8.19038 128.904 11.7133 124.347 12.1277C123.726 12.1277 122.276 12.335 118.133 10.6771C113.782 9.22653 111.504 7.77593 109.225 6.32532C107.361 5.28918 105.703 4.04581 103.011 3.00966C99.9033 1.76629 93.6887 -0.72046 86.2313 0.937372C79.6025 2.18074 75.4594 6.11809 72.7665 8.39761C68.4163 12.335 64.8948 17.3085 62.8232 23.1109L66.7591 24.5615C68.8306 19.3807 71.7307 14.8217 75.6666 11.506Z" fill="black"/>
<path d="M47.0798 61.8627C48.1156 66.6289 49.7728 71.188 51.6372 75.5398L55.3659 73.882C53.5015 69.7374 52.0515 65.1783 51.0157 60.8265C50.3942 58.547 49.98 56.2675 49.5656 53.3663C49.1513 49.2217 48.737 44.8699 50.6014 39.8964C51.43 37.8241 52.8801 33.4723 57.4374 30.5711C59.0946 29.535 60.9589 28.7061 62.8233 28.4988L61.9947 24.3542C59.5089 24.7687 57.2302 25.8049 54.9516 27.0482C49.3585 30.5711 47.287 35.9591 46.4584 38.4458C44.3869 44.2482 44.8012 49.2217 45.2155 53.7808C45.8369 56.8892 46.4584 59.3759 47.0798 61.8627Z" fill="black"/>
<path d="M63.4447 54.8169C64.2733 52.7446 65.3091 50.8795 66.552 49.0145L63.2376 46.5277C61.5804 48.6 60.3375 50.8795 59.5089 53.3663C58.266 56.4747 58.0588 59.1687 57.8517 60.8265C57.4374 64.3494 57.6445 67.8723 58.2659 71.6024L62.409 70.7735C61.7875 67.6651 61.7875 64.3494 61.9947 61.241C62.2018 59.5831 62.409 57.5108 63.4447 54.8169Z" fill="black"/>
<path d="M69.4521 44.8699C70.2807 45.906 70.9021 46.9422 71.1093 48.1856L75.0452 46.9422C74.6309 45.2843 73.8022 43.6265 72.5593 42.1759C71.1093 40.3109 69.4521 39.2747 68.6235 38.653C67.3806 37.8241 66.1377 37.2024 64.6876 36.788L63.2375 40.7253C64.2733 41.1398 65.3091 41.5542 66.3448 42.1759C67.1734 42.7976 68.4163 43.4193 69.4521 44.8699Z" fill="black"/>
<path d="M76.4952 42.1759L80.0167 39.8964C78.7738 38.0313 77.3237 36.3735 75.6665 34.9229C74.6308 34.094 73.5951 33.2651 72.3521 32.6434L70.2806 36.3735C71.1092 36.7879 72.145 37.4096 72.9736 38.2386C74.4237 39.2747 75.6666 40.7253 76.4952 42.1759Z" fill="black"/>
<path d="M121.654 70.1518C122.483 66.0073 122.69 61.8627 122.068 57.7181C121.861 55.8531 121.447 52.5374 119.583 48.3928C118.34 45.6988 116.682 43.0049 114.818 40.7253L111.711 43.4193C113.368 45.4916 114.818 47.5639 115.854 50.0506C117.304 53.5735 117.718 56.4747 117.925 58.1326C118.34 61.8627 118.34 65.5928 117.511 69.3229L121.654 70.1518Z" fill="black"/>
<path d="M76.0809 63.3133C77.1166 62.6916 77.7381 61.6554 77.5309 60.2048C77.5309 59.5831 77.1166 58.7542 76.7023 58.1325C75.8737 57.3036 75.2523 57.3036 74.8379 57.0964C73.8022 56.8892 72.9736 56.8892 71.9379 56.8892C70.9021 57.0964 70.0735 57.3036 69.0377 58.1325C69.8663 59.1687 70.4878 59.5831 71.3164 60.2048C72.145 60.6193 72.9736 60.8265 73.595 61.0337C74.0093 61.0337 74.2165 61.241 74.0094 61.0337C74.0094 61.0337 74.2165 61.0337 74.4237 61.241C75.0451 61.6554 75.4594 62.2771 76.0809 63.3133Z" fill="black"/>
<path d="M109.018 58.7542C109.846 57.5109 109.846 56.2675 109.225 55.0241C108.189 55.6458 107.361 56.2675 106.739 56.4747C106.118 56.6819 105.703 56.6819 104.875 56.8892C103.839 57.0964 102.803 57.5109 101.975 58.1325C101.146 58.7542 100.317 59.7904 99.9032 61.0337C101.146 61.241 102.182 61.241 103.218 61.241C104.253 61.241 104.875 61.0337 105.911 60.8265C106.325 60.6193 106.946 60.6193 107.568 60.2048C108.189 59.7904 108.811 59.3759 109.018 58.7542Z" fill="black"/>
<path d="M77.7381 78.6482C79.3398 78.6482 80.6382 77.3493 80.6382 75.747C80.6382 74.1447 79.3398 72.8458 77.7381 72.8458C76.1364 72.8458 74.838 74.1447 74.838 75.747C74.838 77.3493 76.1364 78.6482 77.7381 78.6482Z" fill="black"/>
<path d="M104.253 77.1976C105.855 77.1976 107.154 75.8987 107.154 74.2964C107.154 72.6941 105.855 71.3952 104.253 71.3952C102.652 71.3952 101.353 72.6941 101.353 74.2964C101.353 75.8987 102.652 77.1976 104.253 77.1976Z" fill="black"/>
<path d="M83.124 105.381C84.3669 106.417 87.8885 108.904 92.653 108.904C92.8601 108.904 93.0673 108.904 93.0673 108.904C99.9032 108.696 103.632 103.723 104.461 102.687L101.146 100.2C100.732 100.822 97.8317 104.552 93.0673 104.552C89.3386 104.759 86.8527 102.687 85.817 101.858L83.124 105.381Z" fill="black"/>
<path d="M87.4741 82.5855C87.267 84.4506 87.0598 86.3157 87.8884 88.3879C88.5099 89.8385 89.5456 91.0819 90.1671 91.9108C90.9957 92.947 91.8243 93.9831 92.86 94.812L95.553 91.7036C94.7244 91.0819 94.1029 90.253 93.2743 89.4241C92.6529 88.5952 92.0315 87.7663 91.6172 86.9373C91.2029 85.9012 91.2028 85.0723 91.41 83.4145C91.41 82.7928 91.6172 82.3783 91.6172 81.7566C91.8243 79.0626 91.8243 76.3687 91.2028 73.4675L87.0598 74.2964C87.4741 76.7831 87.6813 79.0626 87.4741 81.3422C87.6813 81.5494 87.6813 82.1711 87.4741 82.5855Z" fill="black"/>
<path d="M191.05 201.535C191.257 194.075 189.6 186.822 186.078 180.812C183.178 175.839 179.863 172.73 177.792 170.658C172.82 165.892 168.056 163.198 164.534 161.333C160.598 159.26 158.32 158.224 155.005 156.981C152.727 156.152 149.827 154.908 145.891 153.251C142.369 151.593 138.64 149.728 135.326 147.863C134.083 146.412 133.047 144.754 131.804 143.096C130.562 141.231 129.733 139.988 129.111 139.159C128.283 137.916 127.661 136.88 126.419 135.429C123.933 132.321 121.861 129.834 118.132 128.59C116.89 128.176 115.647 127.969 114.197 127.969L113.575 116.986C114.611 116.157 115.647 115.121 116.682 113.877C120.618 109.111 122.276 104.345 122.276 104.137C122.483 103.516 122.69 103.101 122.69 102.48C123.104 101.029 123.311 100.2 124.14 98.9567C124.761 98.335 124.969 97.9205 125.797 97.2988C126.419 96.6771 127.247 96.0555 128.283 94.8121C129.733 93.1542 130.976 91.9109 132.012 90.0458C134.083 85.9012 133.462 81.5494 133.255 80.0988C132.633 75.9542 130.769 72.8458 129.111 70.7735C129.319 69.9446 129.526 68.9085 129.94 67.8723C131.39 61.4482 131.183 55.6458 130.562 51.9157C129.733 46.735 128.076 41.9687 125.383 37.4097L121.861 39.482C124.14 43.4193 125.797 47.9783 126.626 52.5374C127.247 55.853 127.454 61.241 126.211 66.8362C125.383 70.1518 124.969 71.8097 123.726 73.882L123.311 74.7109C122.483 75.9542 121.654 77.4049 120.825 79.6844C120.411 80.7205 120.204 81.9639 119.79 83.2073L123.933 84.0362C124.14 83 124.347 82.1711 124.761 81.135C125.383 79.2699 126.211 78.0265 126.833 76.9904C127.04 76.7832 127.247 76.3687 127.247 76.1615C127.454 75.9542 127.454 75.747 127.661 75.5398C128.49 76.9904 129.111 78.6482 129.526 80.9277C129.733 82.3783 130.147 85.4868 128.697 88.388C128.076 89.8386 127.04 90.8747 125.59 92.3253C124.554 93.3615 123.933 93.9832 123.518 94.3976C122.897 95.0193 122.068 95.641 121.24 96.6771C119.997 98.5422 119.583 99.7856 118.961 101.443C118.754 101.858 118.754 102.272 118.547 102.894C118.547 102.894 117.097 107.246 113.575 111.39C110.261 115.535 106.325 117.4 103.011 118.851C99.0746 120.716 94.5173 122.581 88.9242 121.959C85.817 121.545 83.5383 120.301 78.7738 117.814C74.2165 115.535 72.3522 114.499 71.3164 112.634C70.2807 110.976 69.4521 107.868 68.8306 105.174V104.552C68.6235 102.687 68.2092 99.9928 65.9305 98.335C65.1019 97.7133 64.2733 97.5061 63.6519 97.2988C61.166 96.4699 58.8874 93.5687 57.8516 91.2892C57.8516 91.2892 56.1944 87.3518 57.6445 83.2073C57.8516 82.5856 58.2659 81.135 58.8874 80.9277C59.3017 80.7205 59.9231 81.135 60.3374 81.3422C61.166 81.9639 61.3732 82.7928 61.3732 83L65.5162 82.3783C65.5162 81.7567 64.8947 79.4771 62.8232 78.0265C61.9946 77.4048 59.9231 76.1615 57.6445 76.9904C55.1586 77.8193 54.33 80.5133 53.9157 81.7567C52.0514 87.3518 54.1229 92.3253 54.3301 92.7398C55.573 95.8482 58.4731 99.7856 62.6161 101.236H62.8232C63.2375 101.443 63.4447 101.443 63.6519 101.651C64.4805 102.272 64.6876 103.723 65.1019 105.174V105.795C65.5162 108.489 66.5519 112.219 68.002 114.706C69.0378 116.571 70.4878 117.814 72.5593 119.058V130.248C71.3164 130.248 70.2807 130.663 69.0378 130.87C65.7233 132.113 63.6518 134.186 62.8232 135.014C59.3017 138.952 58.4731 143.718 58.0588 147.241C54.33 148.899 50.6014 150.557 47.0798 152.629C43.5582 154.701 41.6938 156.152 39.4152 157.81C37.5508 159.26 35.6865 160.711 32.1649 162.99C28.4362 165.477 26.1576 166.721 24.2932 167.549C22.0145 168.793 20.1502 169.829 17.0429 172.316C14.5571 174.388 10.4141 177.911 6.68537 183.713C3.16381 189.308 1.29943 195.525 0.677979 202.571L4.821 202.986C5.2353 196.769 7.09967 190.966 10.2069 185.993C13.5213 180.812 17.2501 177.496 19.5287 175.631C22.2217 173.352 23.6717 172.523 25.9504 171.487C27.8147 170.451 30.3005 169.207 34.2364 166.721C37.9651 164.234 40.0367 162.783 41.901 161.333C43.9725 159.675 45.6297 158.431 49.1513 156.359C52.0514 154.701 54.9515 153.251 57.8516 151.8C57.8516 157.188 59.0945 161.333 59.716 162.99C63.2375 172.316 70.0735 177.496 74.0094 179.776L76.9095 181.434L77.1167 178.118C77.3238 173.352 77.5309 169.829 77.7381 167.549C77.9452 164.441 77.9452 163.405 78.7738 162.161C78.981 161.954 78.981 161.747 79.3953 161.54C80.2239 161.954 81.0525 162.576 81.674 163.198C82.2954 163.819 82.7097 164.648 83.9526 167.964C84.5741 170.036 85.1955 171.694 85.6098 173.145C85.817 174.181 86.2313 175.01 86.4384 175.839C84.9884 177.496 83.9526 179.569 83.9526 182.055C83.9526 184.957 85.4027 187.651 87.6813 189.308C87.4742 196.769 87.267 204.229 87.267 211.689C87.267 220.393 87.4742 229.096 88.0956 237.8L92.2386 237.593C91.8243 229.096 91.4101 220.186 91.4101 211.689C91.4101 204.851 91.6172 198.012 91.8243 191.174C92.4458 191.174 92.8601 191.381 93.4816 191.381C94.7245 191.381 95.9674 191.174 97.2103 190.552C97.8317 195.733 98.4532 200.913 98.8675 206.094C99.4889 212.104 100.11 218.942 100.732 228.06C100.939 232.619 101.146 236.349 101.146 238.836L105.289 238.629C105.289 235.935 105.082 232.205 104.668 227.646C104.046 218.528 103.425 211.482 102.803 205.472C102.182 199.463 101.56 193.453 100.732 187.443C101.56 186.2 102.182 184.957 102.389 183.506L104.253 177.911C105.289 174.595 106.739 171.28 108.396 168.171C109.432 166.306 110.675 164.441 111.918 162.576C113.782 166.099 114.818 170.036 115.025 174.181L115.232 178.947L118.547 175.631C122.483 171.487 126.211 166.928 129.319 162.161C131.39 159.053 133.255 155.737 134.912 152.422C138.019 154.08 141.126 155.737 144.234 157.188C148.377 159.053 151.069 160.089 153.555 161.125C156.455 162.369 158.941 163.198 162.463 165.27C165.984 167.135 170.127 169.414 174.892 173.974C176.963 175.839 179.863 178.74 182.349 183.092C186.285 189.93 186.907 196.769 186.699 201.535H191.05ZM77.1167 121.337C82.0883 123.824 84.7812 125.275 88.7171 125.896C89.7528 126.104 90.7886 126.104 91.8243 126.104C97.2103 126.104 101.56 124.239 105.082 122.581C106.532 121.959 108.396 121.13 110.054 120.094L110.468 128.59L110.882 136.672C110.261 137.501 109.639 138.33 109.018 139.366C108.189 140.61 107.154 141.646 105.703 143.304C103.839 145.376 101.768 147.448 99.4889 149.521L96.796 152.214L97.8317 152.422C97.2103 153.458 96.796 154.494 96.3817 155.737C95.5531 157.81 93.0673 164.027 94.103 171.901C94.103 172.316 94.3102 172.523 94.3102 172.937C93.8959 172.937 93.4816 172.73 93.0673 172.73C92.653 172.73 92.4458 172.73 92.2386 172.73C92.0315 168.793 91.8244 164.855 92.0315 161.125C92.0315 159.053 92.2387 156.981 92.4458 154.908L94.3102 154.287L92.653 152.007C90.7886 149.521 88.7171 147.448 86.2313 145.998C84.9884 145.376 83.9526 144.754 82.9169 144.34C81.4668 143.718 80.2239 143.304 78.7738 142.06C77.9452 141.439 77.1167 140.61 76.4952 139.574L76.7023 120.923C76.7023 121.337 76.9095 121.337 77.1167 121.337ZM75.2523 160.089C74.0094 162.161 73.8022 164.027 73.5951 167.549C73.5951 169 73.3879 171.28 73.1808 174.181C69.8664 171.694 65.9305 167.549 63.6519 161.333C63.0304 159.468 61.5803 154.701 61.9946 148.692C62.2018 145.376 62.6161 141.024 65.7234 137.708C66.3448 136.88 67.7949 135.429 70.0735 134.6C70.695 134.393 71.5236 134.186 72.145 134.186V141.024L72.5593 141.646C73.5951 143.096 74.6308 144.34 75.8737 145.376C77.7381 147.034 79.3953 147.655 81.0525 148.277C82.0883 148.692 82.9169 149.106 83.9526 149.521C85.1955 150.142 86.2313 151.178 87.267 152.214C85.1955 153.043 83.124 154.08 81.0525 155.116C77.3238 157.395 76.0809 158.639 75.2523 160.089ZM84.7812 160.711C84.3669 160.089 83.7455 159.675 83.124 159.053C83.124 159.053 83.124 159.053 83.3312 159.053C84.9884 158.224 86.4384 157.395 88.0956 156.774C87.8885 158.224 87.8885 159.675 87.8885 161.125C87.8885 162.99 87.8885 165.063 87.8885 166.928C87.8885 166.928 87.8885 166.928 87.8885 166.721C86.6456 163.405 85.817 161.954 84.7812 160.711ZM87.8885 182.055C87.8885 180.398 88.7171 178.947 89.96 177.911C90.1672 177.704 90.3743 177.704 90.5815 177.496C91.4101 177.082 92.2387 176.875 93.0673 176.875C95.9674 176.875 98.246 179.154 98.246 182.055C98.246 184.957 95.9674 187.236 93.0673 187.236C90.1672 187.236 87.8885 184.957 87.8885 182.055ZM104.668 166.513C103.425 168.793 102.389 171.072 101.353 173.352C101.146 173.145 100.939 173.145 100.732 172.937C99.9032 172.523 98.8675 172.108 98.0389 172.108C98.0389 171.694 97.8317 171.487 97.8317 171.072C97.0031 164.234 99.0746 158.846 99.9033 156.981C100.318 155.737 100.939 154.494 101.768 153.251C103.011 153.665 104.046 154.08 105.082 154.701C106.946 155.945 108.189 157.395 109.225 158.639C107.775 161.333 106.118 163.819 104.668 166.513ZM125.797 160.089C123.518 163.405 121.033 166.721 118.547 169.622C117.925 166.306 116.89 163.405 115.232 160.504C113.989 158.017 111.918 154.287 107.568 151.593C106.739 150.971 105.703 150.557 104.875 150.142C106.325 148.692 107.568 147.448 108.811 145.998C110.261 144.34 111.297 143.304 112.332 141.853C113.161 140.817 113.99 139.574 114.818 138.537L115.232 137.916L115.025 132.321C115.854 132.321 116.682 132.528 117.304 132.735C119.79 133.564 121.24 135.222 123.726 138.33C124.761 139.574 125.383 140.402 126.004 141.646C126.626 142.682 127.454 143.925 128.697 145.79C129.733 147.241 130.769 148.692 131.804 149.935C129.94 153.458 127.869 156.774 125.797 160.089Z" fill="black"/>
</svg>
